<?xml version="1.0" encoding="utf-8"?>
<svg xmlns="http://www.w3.org/2000/svg" xmlns:xlink="http://www.w3.org/1999/xlink" width="672" height="480" viewBox="0 0 2688 1920">
<defs>
  <clipPath id="clip450">
    <rect x="0" y="0" width="2688" height="1920"/>
  </clipPath>
</defs>
<path clip-path="url(#clip450)" d="
M0 1920 L2688 1920 L2688 0 L0 0  Z
  " fill="#ffffff" fill-rule="evenodd" fill-opacity="1"/>
<defs>
  <clipPath id="clip451">
    <rect x="537" y="0" width="1883" height="1883"/>
  </clipPath>
</defs>
<defs>
  <clipPath id="clip452">
    <rect x="255" y="127" width="2386" height="1607"/>
  </clipPath>
</defs>
<path clip-path="url(#clip450)" d="
M255.816 1734.12 L2640.76 1734.12 L2640.76 127.792 L255.816 127.792  Z
  " fill="#ffffff" fill-rule="evenodd" fill-opacity="1"/>
<polyline clip-path="url(#clip452)" style="stroke:#000000; stroke-linecap:butt; stroke-linejoin:round; stroke-width:2; stroke-opacity:0.1; fill:none" points="
  323.315,1734.12 323.315,127.792 
  "/>
<polyline clip-path="url(#clip452)" style="stroke:#000000; stroke-linecap:butt; stroke-linejoin:round; stroke-width:2; stroke-opacity:0.1; fill:none" points="
  885.8,1734.12 885.8,127.792 
  "/>
<polyline clip-path="url(#clip452)" style="stroke:#000000; stroke-linecap:butt; stroke-linejoin:round; stroke-width:2; stroke-opacity:0.1; fill:none" points="
  1448.29,1734.12 1448.29,127.792 
  "/>
<polyline clip-path="url(#clip452)" style="stroke:#000000; stroke-linecap:butt; stroke-linejoin:round; stroke-width:2; stroke-opacity:0.1; fill:none" points="
  2010.77,1734.12 2010.77,127.792 
  "/>
<polyline clip-path="url(#clip452)" style="stroke:#000000; stroke-linecap:butt; stroke-linejoin:round; stroke-width:2; stroke-opacity:0.1; fill:none" points="
  2573.26,1734.12 2573.26,127.792 
  "/>
<polyline clip-path="url(#clip450)" style="stroke:#000000; stroke-linecap:butt; stroke-linejoin:round; stroke-width:4; stroke-opacity:1; fill:none" points="
  255.816,1734.12 2640.76,1734.12 
  "/>
<polyline clip-path="url(#clip450)" style="stroke:#000000; stroke-linecap:butt; stroke-linejoin:round; stroke-width:4; stroke-opacity:1; fill:none" points="
  323.315,1734.12 323.315,1715.22 
  "/>
<polyline clip-path="url(#clip450)" style="stroke:#000000; stroke-linecap:butt; stroke-linejoin:round; stroke-width:4; stroke-opacity:1; fill:none" points="
  885.8,1734.12 885.8,1715.22 
  "/>
<polyline clip-path="url(#clip450)" style="stroke:#000000; stroke-linecap:butt; stroke-linejoin:round; stroke-width:4; stroke-opacity:1; fill:none" points="
  1448.29,1734.12 1448.29,1715.22 
  "/>
<polyline clip-path="url(#clip450)" style="stroke:#000000; stroke-linecap:butt; stroke-linejoin:round; stroke-width:4; stroke-opacity:1; fill:none" points="
  2010.77,1734.12 2010.77,1715.22 
  "/>
<polyline clip-path="url(#clip450)" style="stroke:#000000; stroke-linecap:butt; stroke-linejoin:round; stroke-width:4; stroke-opacity:1; fill:none" points="
  2573.26,1734.12 2573.26,1715.22 
  "/>
<path clip-path="url(#clip450)" d="M269.843 1781.99 L299.518 1781.99 L299.518 1785.93 L269.843 1785.93 L269.843 1781.99 Z" fill="#000000" fill-rule="evenodd" fill-opacity="1" /><path clip-path="url(#clip450)" d="M310.421 1794.89 L318.06 1794.89 L318.06 1768.52 L309.75 1770.19 L309.75 1765.93 L318.014 1764.26 L322.69 1764.26 L322.69 1794.89 L330.328 1794.89 L330.328 1798.82 L310.421 1798.82 L310.421 1794.89 Z" fill="#000000" fill-rule="evenodd" fill-opacity="1" /><path clip-path="url(#clip450)" d="M339.773 1792.94 L344.657 1792.94 L344.657 1798.82 L339.773 1798.82 L339.773 1792.94 Z" fill="#000000" fill-rule="evenodd" fill-opacity="1" /><path clip-path="url(#clip450)" d="M364.842 1767.34 Q361.231 1767.34 359.402 1770.9 Q357.597 1774.45 357.597 1781.58 Q357.597 1788.68 359.402 1792.25 Q361.231 1795.79 364.842 1795.79 Q368.476 1795.79 370.282 1792.25 Q372.111 1788.68 372.111 1781.58 Q372.111 1774.45 370.282 1770.9 Q368.476 1767.34 364.842 1767.34 M364.842 1763.64 Q370.652 1763.64 373.708 1768.24 Q376.787 1772.83 376.787 1781.58 Q376.787 1790.3 373.708 1794.91 Q370.652 1799.49 364.842 1799.49 Q359.032 1799.49 355.953 1794.91 Q352.898 1790.3 352.898 1781.58 Q352.898 1772.83 355.953 1768.24 Q359.032 1763.64 364.842 1763.64 Z" fill="#000000" fill-rule="evenodd" fill-opacity="1" /><path clip-path="url(#clip450)" d="M832.826 1781.99 L862.502 1781.99 L862.502 1785.93 L832.826 1785.93 L832.826 1781.99 Z" fill="#000000" fill-rule="evenodd" fill-opacity="1" /><path clip-path="url(#clip450)" d="M882.594 1767.34 Q878.983 1767.34 877.155 1770.9 Q875.349 1774.45 875.349 1781.58 Q875.349 1788.68 877.155 1792.25 Q878.983 1795.79 882.594 1795.79 Q886.229 1795.79 888.034 1792.25 Q889.863 1788.68 889.863 1781.58 Q889.863 1774.45 888.034 1770.9 Q886.229 1767.34 882.594 1767.34 M882.594 1763.64 Q888.405 1763.64 891.46 1768.24 Q894.539 1772.83 894.539 1781.58 Q894.539 1790.3 891.46 1794.91 Q888.405 1799.49 882.594 1799.49 Q876.784 1799.49 873.706 1794.91 Q870.65 1790.3 870.65 1781.58 Q870.65 1772.83 873.706 1768.24 Q876.784 1763.64 882.594 1763.64 Z" fill="#000000" fill-rule="evenodd" fill-opacity="1" /><path clip-path="url(#clip450)" d="M902.756 1792.94 L907.641 1792.94 L907.641 1798.82 L902.756 1798.82 L902.756 1792.94 Z" fill="#000000" fill-rule="evenodd" fill-opacity="1" /><path clip-path="url(#clip450)" d="M917.872 1764.26 L936.228 1764.26 L936.228 1768.2 L922.154 1768.2 L922.154 1776.67 Q923.173 1776.32 924.191 1776.16 Q925.21 1775.97 926.228 1775.97 Q932.015 1775.97 935.395 1779.15 Q938.775 1782.32 938.775 1787.73 Q938.775 1793.31 935.302 1796.41 Q931.83 1799.49 925.511 1799.49 Q923.335 1799.49 921.066 1799.12 Q918.821 1798.75 916.414 1798.01 L916.414 1793.31 Q918.497 1794.45 920.719 1795 Q922.941 1795.56 925.418 1795.56 Q929.423 1795.56 931.761 1793.45 Q934.099 1791.34 934.099 1787.73 Q934.099 1784.12 931.761 1782.02 Q929.423 1779.91 925.418 1779.91 Q923.543 1779.91 921.668 1780.33 Q919.816 1780.74 917.872 1781.62 L917.872 1764.26 Z" fill="#000000" fill-rule="evenodd" fill-opacity="1" /><path clip-path="url(#clip450)" d="M1425.67 1767.34 Q1422.06 1767.34 1420.23 1770.9 Q1418.43 1774.45 1418.43 1781.58 Q1418.43 1788.68 1420.23 1792.25 Q1422.06 1795.79 1425.67 1795.79 Q1429.3 1795.79 1431.11 1792.25 Q1432.94 1788.68 1432.94 1781.58 Q1432.94 1774.45 1431.11 1770.9 Q1429.3 1767.34 1425.67 1767.34 M1425.67 1763.64 Q1431.48 1763.64 1434.54 1768.24 Q1437.61 1772.83 1437.61 1781.58 Q1437.61 1790.3 1434.54 1794.91 Q1431.48 1799.49 1425.67 1799.49 Q1419.86 1799.49 1416.78 1794.91 Q1413.73 1790.3 1413.73 1781.58 Q1413.73 1772.83 1416.78 1768.24 Q1419.86 1763.64 1425.67 1763.64 Z" fill="#000000" fill-rule="evenodd" fill-opacity="1" /><path clip-path="url(#clip450)" d="M1445.83 1792.94 L1450.72 1792.94 L1450.72 1798.82 L1445.83 1798.82 L1445.83 1792.94 Z" fill="#000000" fill-rule="evenodd" fill-opacity="1" /><path clip-path="url(#clip450)" d="M1470.9 1767.34 Q1467.29 1767.34 1465.46 1770.9 Q1463.66 1774.45 1463.66 1781.58 Q1463.66 1788.68 1465.46 1792.25 Q1467.29 1795.79 1470.9 1795.79 Q1474.54 1795.79 1476.34 1792.25 Q1478.17 1788.68 1478.17 1781.58 Q1478.17 1774.45 1476.34 1770.9 Q1474.54 1767.34 1470.9 1767.34 M1470.9 1763.64 Q1476.71 1763.64 1479.77 1768.24 Q1482.85 1772.83 1482.85 1781.58 Q1482.85 1790.3 1479.77 1794.91 Q1476.71 1799.49 1470.9 1799.49 Q1465.09 1799.49 1462.01 1794.91 Q1458.96 1790.3 1458.96 1781.58 Q1458.96 1772.83 1462.01 1768.24 Q1465.09 1763.64 1470.9 1763.64 Z" fill="#000000" fill-rule="evenodd" fill-opacity="1" /><path clip-path="url(#clip450)" d="M1988.65 1767.34 Q1985.04 1767.34 1983.21 1770.9 Q1981.41 1774.45 1981.41 1781.58 Q1981.41 1788.68 1983.21 1792.25 Q1985.04 1795.79 1988.65 1795.79 Q1992.29 1795.79 1994.09 1792.25 Q1995.92 1788.68 1995.92 1781.58 Q1995.92 1774.45 1994.09 1770.9 Q1992.29 1767.34 1988.65 1767.34 M1988.65 1763.64 Q1994.46 1763.64 1997.52 1768.24 Q2000.6 1772.83 2000.6 1781.58 Q2000.6 1790.3 1997.52 1794.91 Q1994.46 1799.49 1988.65 1799.49 Q1982.84 1799.49 1979.77 1794.91 Q1976.71 1790.3 1976.71 1781.58 Q1976.71 1772.83 1979.77 1768.24 Q1982.84 1763.64 1988.65 1763.64 Z" fill="#000000" fill-rule="evenodd" fill-opacity="1" /><path clip-path="url(#clip450)" d="M2008.82 1792.94 L2013.7 1792.94 L2013.7 1798.82 L2008.82 1798.82 L2008.82 1792.94 Z" fill="#000000" fill-rule="evenodd" fill-opacity="1" /><path clip-path="url(#clip450)" d="M2023.93 1764.26 L2042.29 1764.26 L2042.29 1768.2 L2028.21 1768.2 L2028.21 1776.67 Q2029.23 1776.32 2030.25 1776.16 Q2031.27 1775.97 2032.29 1775.97 Q2038.07 1775.97 2041.45 1779.15 Q2044.83 1782.32 2044.83 1787.73 Q2044.83 1793.31 2041.36 1796.41 Q2037.89 1799.49 2031.57 1799.49 Q2029.39 1799.49 2027.13 1799.12 Q2024.88 1798.75 2022.47 1798.01 L2022.47 1793.31 Q2024.56 1794.45 2026.78 1795 Q2029 1795.56 2031.48 1795.56 Q2035.48 1795.56 2037.82 1793.45 Q2040.16 1791.34 2040.16 1787.73 Q2040.16 1784.12 2037.82 1782.02 Q2035.48 1779.91 2031.48 1779.91 Q2029.6 1779.91 2027.73 1780.33 Q2025.88 1780.74 2023.93 1781.62 L2023.93 1764.26 Z" fill="#000000" fill-rule="evenodd" fill-opacity="1" /><path clip-path="url(#clip450)" d="M2540.41 1794.89 L2548.05 1794.89 L2548.05 1768.52 L2539.74 1770.19 L2539.74 1765.93 L2548 1764.26 L2552.68 1764.26 L2552.68 1794.89 L2560.32 1794.89 L2560.32 1798.82 L2540.41 1798.82 L2540.41 1794.89 Z" fill="#000000" fill-rule="evenodd" fill-opacity="1" /><path clip-path="url(#clip450)" d="M2569.76 1792.94 L2574.65 1792.94 L2574.65 1798.82 L2569.76 1798.82 L2569.76 1792.94 Z" fill="#000000" fill-rule="evenodd" fill-opacity="1" /><path clip-path="url(#clip450)" d="M2594.83 1767.34 Q2591.22 1767.34 2589.39 1770.9 Q2587.59 1774.45 2587.59 1781.58 Q2587.59 1788.68 2589.39 1792.25 Q2591.22 1795.79 2594.83 1795.79 Q2598.47 1795.79 2600.27 1792.25 Q2602.1 1788.68 2602.1 1781.58 Q2602.1 1774.45 2600.27 1770.9 Q2598.47 1767.34 2594.83 1767.34 M2594.83 1763.64 Q2600.64 1763.64 2603.7 1768.24 Q2606.78 1772.83 2606.78 1781.58 Q2606.78 1790.3 2603.7 1794.91 Q2600.64 1799.49 2594.83 1799.49 Q2589.02 1799.49 2585.94 1794.91 Q2582.89 1790.3 2582.89 1781.58 Q2582.89 1772.83 2585.94 1768.24 Q2589.02 1763.64 2594.83 1763.64 Z" fill="#000000" fill-rule="evenodd" fill-opacity="1" /><path clip-path="url(#clip450)" d="M1464.9 1847.65 L1452.01 1865 L1465.57 1883.3 L1458.66 1883.3 L1448.29 1869.3 L1437.91 1883.3 L1431 1883.3 L1444.85 1864.65 L1432.18 1847.65 L1439.09 1847.65 L1448.54 1860.35 L1457.99 1847.65 L1464.9 1847.65 Z" fill="#000000" fill-rule="evenodd" fill-opacity="1" /><polyline clip-path="url(#clip452)" style="stroke:#000000; stroke-linecap:butt; stroke-linejoin:round; stroke-width:2; stroke-opacity:0.1; fill:none" points="
  255.816,1688.65 2640.76,1688.65 
  "/>
<polyline clip-path="url(#clip452)" style="stroke:#000000; stroke-linecap:butt; stroke-linejoin:round; stroke-width:2; stroke-opacity:0.1; fill:none" points="
  255.816,1309.8 2640.76,1309.8 
  "/>
<polyline clip-path="url(#clip452)" style="stroke:#000000; stroke-linecap:butt; stroke-linejoin:round; stroke-width:2; stroke-opacity:0.1; fill:none" points="
  255.816,930.955 2640.76,930.955 
  "/>
<polyline clip-path="url(#clip452)" style="stroke:#000000; stroke-linecap:butt; stroke-linejoin:round; stroke-width:2; stroke-opacity:0.1; fill:none" points="
  255.816,552.104 2640.76,552.104 
  "/>
<polyline clip-path="url(#clip452)" style="stroke:#000000; stroke-linecap:butt; stroke-linejoin:round; stroke-width:2; stroke-opacity:0.1; fill:none" points="
  255.816,173.254 2640.76,173.254 
  "/>
<polyline clip-path="url(#clip450)" style="stroke:#000000; stroke-linecap:butt; stroke-linejoin:round; stroke-width:4; stroke-opacity:1; fill:none" points="
  255.816,1734.12 255.816,127.792 
  "/>
<polyline clip-path="url(#clip450)" style="stroke:#000000; stroke-linecap:butt; stroke-linejoin:round; stroke-width:4; stroke-opacity:1; fill:none" points="
  255.816,1688.65 274.714,1688.65 
  "/>
<polyline clip-path="url(#clip450)" style="stroke:#000000; stroke-linecap:butt; stroke-linejoin:round; stroke-width:4; stroke-opacity:1; fill:none" points="
  255.816,1309.8 274.714,1309.8 
  "/>
<polyline clip-path="url(#clip450)" style="stroke:#000000; stroke-linecap:butt; stroke-linejoin:round; stroke-width:4; stroke-opacity:1; fill:none" points="
  255.816,930.955 274.714,930.955 
  "/>
<polyline clip-path="url(#clip450)" style="stroke:#000000; stroke-linecap:butt; stroke-linejoin:round; stroke-width:4; stroke-opacity:1; fill:none" points="
  255.816,552.104 274.714,552.104 
  "/>
<polyline clip-path="url(#clip450)" style="stroke:#000000; stroke-linecap:butt; stroke-linejoin:round; stroke-width:4; stroke-opacity:1; fill:none" points="
  255.816,173.254 274.714,173.254 
  "/>
<path clip-path="url(#clip450)" d="M128.159 1674.45 Q124.548 1674.45 122.719 1678.02 Q120.913 1681.56 120.913 1688.69 Q120.913 1695.8 122.719 1699.36 Q124.548 1702.9 128.159 1702.9 Q131.793 1702.9 133.599 1699.36 Q135.427 1695.8 135.427 1688.69 Q135.427 1681.56 133.599 1678.02 Q131.793 1674.45 128.159 1674.45 M128.159 1670.75 Q133.969 1670.75 137.025 1675.36 Q140.103 1679.94 140.103 1688.69 Q140.103 1697.42 137.025 1702.02 Q133.969 1706.61 128.159 1706.61 Q122.349 1706.61 119.27 1702.02 Q116.214 1697.42 116.214 1688.69 Q116.214 1679.94 119.27 1675.36 Q122.349 1670.75 128.159 1670.75 Z" fill="#000000" fill-rule="evenodd" fill-opacity="1" /><path clip-path="url(#clip450)" d="M148.321 1700.06 L153.205 1700.06 L153.205 1705.93 L148.321 1705.93 L148.321 1700.06 Z" fill="#000000" fill-rule="evenodd" fill-opacity="1" /><path clip-path="url(#clip450)" d="M173.39 1674.45 Q169.779 1674.45 167.95 1678.02 Q166.145 1681.56 166.145 1688.69 Q166.145 1695.8 167.95 1699.36 Q169.779 1702.9 173.39 1702.9 Q177.024 1702.9 178.83 1699.36 Q180.659 1695.8 180.659 1688.69 Q180.659 1681.56 178.83 1678.02 Q177.024 1674.45 173.39 1674.45 M173.39 1670.75 Q179.2 1670.75 182.256 1675.36 Q185.334 1679.94 185.334 1688.69 Q185.334 1697.42 182.256 1702.02 Q179.2 1706.61 173.39 1706.61 Q167.58 1706.61 164.501 1702.02 Q161.446 1697.42 161.446 1688.69 Q161.446 1679.94 164.501 1675.36 Q167.58 1670.75 173.39 1670.75 Z" fill="#000000" fill-rule="evenodd" fill-opacity="1" /><path clip-path="url(#clip450)" d="M203.552 1674.45 Q199.941 1674.45 198.112 1678.02 Q196.307 1681.56 196.307 1688.69 Q196.307 1695.8 198.112 1699.36 Q199.941 1702.9 203.552 1702.9 Q207.186 1702.9 208.992 1699.36 Q210.82 1695.8 210.82 1688.69 Q210.82 1681.56 208.992 1678.02 Q207.186 1674.45 203.552 1674.45 M203.552 1670.75 Q209.362 1670.75 212.418 1675.36 Q215.496 1679.94 215.496 1688.69 Q215.496 1697.42 212.418 1702.02 Q209.362 1706.61 203.552 1706.61 Q197.742 1706.61 194.663 1702.02 Q191.608 1697.42 191.608 1688.69 Q191.608 1679.94 194.663 1675.36 Q197.742 1670.75 203.552 1670.75 Z" fill="#000000" fill-rule="evenodd" fill-opacity="1" /><path clip-path="url(#clip450)" d="M129.154 1295.6 Q125.543 1295.6 123.714 1299.17 Q121.909 1302.71 121.909 1309.84 Q121.909 1316.95 123.714 1320.51 Q125.543 1324.05 129.154 1324.05 Q132.788 1324.05 134.594 1320.51 Q136.423 1316.95 136.423 1309.84 Q136.423 1302.71 134.594 1299.17 Q132.788 1295.6 129.154 1295.6 M129.154 1291.9 Q134.964 1291.9 138.02 1296.51 Q141.099 1301.09 141.099 1309.84 Q141.099 1318.57 138.02 1323.17 Q134.964 1327.76 129.154 1327.76 Q123.344 1327.76 120.265 1323.17 Q117.21 1318.57 117.21 1309.84 Q117.21 1301.09 120.265 1296.51 Q123.344 1291.9 129.154 1291.9 Z" fill="#000000" fill-rule="evenodd" fill-opacity="1" /><path clip-path="url(#clip450)" d="M149.316 1321.21 L154.2 1321.21 L154.2 1327.08 L149.316 1327.08 L149.316 1321.21 Z" fill="#000000" fill-rule="evenodd" fill-opacity="1" /><path clip-path="url(#clip450)" d="M168.413 1323.15 L184.733 1323.15 L184.733 1327.08 L162.788 1327.08 L162.788 1323.15 Q165.45 1320.39 170.034 1315.77 Q174.64 1311.11 175.821 1309.77 Q178.066 1307.25 178.946 1305.51 Q179.848 1303.75 179.848 1302.06 Q179.848 1299.31 177.904 1297.57 Q175.983 1295.83 172.881 1295.83 Q170.682 1295.83 168.228 1296.6 Q165.798 1297.36 163.02 1298.91 L163.02 1294.19 Q165.844 1293.06 168.297 1292.48 Q170.751 1291.9 172.788 1291.9 Q178.159 1291.9 181.353 1294.58 Q184.547 1297.27 184.547 1301.76 Q184.547 1303.89 183.737 1305.81 Q182.95 1307.71 180.844 1310.3 Q180.265 1310.97 177.163 1314.19 Q174.061 1317.39 168.413 1323.15 Z" fill="#000000" fill-rule="evenodd" fill-opacity="1" /><path clip-path="url(#clip450)" d="M194.594 1292.52 L212.95 1292.52 L212.95 1296.46 L198.876 1296.46 L198.876 1304.93 Q199.895 1304.58 200.913 1304.42 Q201.932 1304.24 202.95 1304.24 Q208.737 1304.24 212.117 1307.41 Q215.496 1310.58 215.496 1316 Q215.496 1321.58 212.024 1324.68 Q208.552 1327.76 202.233 1327.76 Q200.057 1327.76 197.788 1327.39 Q195.543 1327.02 193.135 1326.27 L193.135 1321.58 Q195.219 1322.71 197.441 1323.27 Q199.663 1323.82 202.14 1323.82 Q206.145 1323.82 208.482 1321.71 Q210.82 1319.61 210.82 1316 Q210.82 1312.39 208.482 1310.28 Q206.145 1308.17 202.14 1308.17 Q200.265 1308.17 198.39 1308.59 Q196.538 1309.01 194.594 1309.89 L194.594 1292.52 Z" fill="#000000" fill-rule="evenodd" fill-opacity="1" /><path clip-path="url(#clip450)" d="M128.159 916.753 Q124.548 916.753 122.719 920.318 Q120.913 923.86 120.913 930.989 Q120.913 938.096 122.719 941.661 Q124.548 945.202 128.159 945.202 Q131.793 945.202 133.599 941.661 Q135.427 938.096 135.427 930.989 Q135.427 923.86 133.599 920.318 Q131.793 916.753 128.159 916.753 M128.159 913.05 Q133.969 913.05 137.025 917.656 Q140.103 922.239 140.103 930.989 Q140.103 939.716 137.025 944.323 Q133.969 948.906 128.159 948.906 Q122.349 948.906 119.27 944.323 Q116.214 939.716 116.214 930.989 Q116.214 922.239 119.27 917.656 Q122.349 913.05 128.159 913.05 Z" fill="#000000" fill-rule="evenodd" fill-opacity="1" /><path clip-path="url(#clip450)" d="M148.321 942.355 L153.205 942.355 L153.205 948.235 L148.321 948.235 L148.321 942.355 Z" fill="#000000" fill-rule="evenodd" fill-opacity="1" /><path clip-path="url(#clip450)" d="M163.436 913.675 L181.793 913.675 L181.793 917.61 L167.719 917.61 L167.719 926.082 Q168.737 925.735 169.756 925.573 Q170.774 925.387 171.793 925.387 Q177.58 925.387 180.959 928.559 Q184.339 931.73 184.339 937.147 Q184.339 942.725 180.867 945.827 Q177.395 948.906 171.075 948.906 Q168.899 948.906 166.631 948.535 Q164.385 948.165 161.978 947.424 L161.978 942.725 Q164.061 943.86 166.284 944.415 Q168.506 944.971 170.983 944.971 Q174.987 944.971 177.325 942.864 Q179.663 940.758 179.663 937.147 Q179.663 933.536 177.325 931.429 Q174.987 929.323 170.983 929.323 Q169.108 929.323 167.233 929.739 Q165.381 930.156 163.436 931.036 L163.436 913.675 Z" fill="#000000" fill-rule="evenodd" fill-opacity="1" /><path clip-path="url(#clip450)" d="M203.552 916.753 Q199.941 916.753 198.112 920.318 Q196.307 923.86 196.307 930.989 Q196.307 938.096 198.112 941.661 Q199.941 945.202 203.552 945.202 Q207.186 945.202 208.992 941.661 Q210.82 938.096 210.82 930.989 Q210.82 923.86 208.992 920.318 Q207.186 916.753 203.552 916.753 M203.552 913.05 Q209.362 913.05 212.418 917.656 Q215.496 922.239 215.496 930.989 Q215.496 939.716 212.418 944.323 Q209.362 948.906 203.552 948.906 Q197.742 948.906 194.663 944.323 Q191.608 939.716 191.608 930.989 Q191.608 922.239 194.663 917.656 Q197.742 913.05 203.552 913.05 Z" fill="#000000" fill-rule="evenodd" fill-opacity="1" /><path clip-path="url(#clip450)" d="M129.154 537.903 Q125.543 537.903 123.714 541.468 Q121.909 545.009 121.909 552.139 Q121.909 559.246 123.714 562.81 Q125.543 566.352 129.154 566.352 Q132.788 566.352 134.594 562.81 Q136.423 559.246 136.423 552.139 Q136.423 545.009 134.594 541.468 Q132.788 537.903 129.154 537.903 M129.154 534.199 Q134.964 534.199 138.02 538.806 Q141.099 543.389 141.099 552.139 Q141.099 560.866 138.02 565.472 Q134.964 570.056 129.154 570.056 Q123.344 570.056 120.265 565.472 Q117.21 560.866 117.21 552.139 Q117.21 543.389 120.265 538.806 Q123.344 534.199 129.154 534.199 Z" fill="#000000" fill-rule="evenodd" fill-opacity="1" /><path clip-path="url(#clip450)" d="M149.316 563.505 L154.2 563.505 L154.2 569.384 L149.316 569.384 L149.316 563.505 Z" fill="#000000" fill-rule="evenodd" fill-opacity="1" /><path clip-path="url(#clip450)" d="M163.205 534.824 L185.427 534.824 L185.427 536.815 L172.881 569.384 L167.997 569.384 L179.802 538.76 L163.205 538.76 L163.205 534.824 Z" fill="#000000" fill-rule="evenodd" fill-opacity="1" /><path clip-path="url(#clip450)" d="M194.594 534.824 L212.95 534.824 L212.95 538.76 L198.876 538.76 L198.876 547.232 Q199.895 546.884 200.913 546.722 Q201.932 546.537 202.95 546.537 Q208.737 546.537 212.117 549.709 Q215.496 552.88 215.496 558.296 Q215.496 563.875 212.024 566.977 Q208.552 570.056 202.233 570.056 Q200.057 570.056 197.788 569.685 Q195.543 569.315 193.135 568.574 L193.135 563.875 Q195.219 565.009 197.441 565.565 Q199.663 566.12 202.14 566.12 Q206.145 566.12 208.482 564.014 Q210.82 561.908 210.82 558.296 Q210.82 554.685 208.482 552.579 Q206.145 550.472 202.14 550.472 Q200.265 550.472 198.39 550.889 Q196.538 551.306 194.594 552.185 L194.594 534.824 Z" fill="#000000" fill-rule="evenodd" fill-opacity="1" /><path clip-path="url(#clip450)" d="M118.969 186.599 L126.608 186.599 L126.608 160.233 L118.298 161.9 L118.298 157.641 L126.562 155.974 L131.238 155.974 L131.238 186.599 L138.876 186.599 L138.876 190.534 L118.969 190.534 L118.969 186.599 Z" fill="#000000" fill-rule="evenodd" fill-opacity="1" /><path clip-path="url(#clip450)" d="M148.321 184.655 L153.205 184.655 L153.205 190.534 L148.321 190.534 L148.321 184.655 Z" fill="#000000" fill-rule="evenodd" fill-opacity="1" /><path clip-path="url(#clip450)" d="M173.39 159.053 Q169.779 159.053 167.95 162.618 Q166.145 166.159 166.145 173.289 Q166.145 180.395 167.95 183.96 Q169.779 187.502 173.39 187.502 Q177.024 187.502 178.83 183.96 Q180.659 180.395 180.659 173.289 Q180.659 166.159 178.83 162.618 Q177.024 159.053 173.39 159.053 M173.39 155.349 Q179.2 155.349 182.256 159.956 Q185.334 164.539 185.334 173.289 Q185.334 182.016 182.256 186.622 Q179.2 191.205 173.39 191.205 Q167.58 191.205 164.501 186.622 Q161.446 182.016 161.446 173.289 Q161.446 164.539 164.501 159.956 Q167.58 155.349 173.39 155.349 Z" fill="#000000" fill-rule="evenodd" fill-opacity="1" /><path clip-path="url(#clip450)" d="M203.552 159.053 Q199.941 159.053 198.112 162.618 Q196.307 166.159 196.307 173.289 Q196.307 180.395 198.112 183.96 Q199.941 187.502 203.552 187.502 Q207.186 187.502 208.992 183.96 Q210.82 180.395 210.82 173.289 Q210.82 166.159 208.992 162.618 Q207.186 159.053 203.552 159.053 M203.552 155.349 Q209.362 155.349 212.418 159.956 Q215.496 164.539 215.496 173.289 Q215.496 182.016 212.418 186.622 Q209.362 191.205 203.552 191.205 Q197.742 191.205 194.663 186.622 Q191.608 182.016 191.608 173.289 Q191.608 164.539 194.663 159.956 Q197.742 155.349 203.552 155.349 Z" fill="#000000" fill-rule="evenodd" fill-opacity="1" /><path clip-path="url(#clip450)" d="M64.9486 929.268 Q71.3143 931.75 73.2559 934.106 Q75.1974 936.461 75.1974 940.408 L75.1974 945.086 L70.2958 945.086 L70.2958 941.649 Q70.2958 939.23 69.15 937.893 Q68.0041 936.556 63.7391 934.933 L61.0655 933.883 L25.9905 948.301 L25.9905 942.095 L53.8723 930.955 L25.9905 919.815 L25.9905 913.608 L64.9486 929.268 Z" fill="#000000" fill-rule="evenodd" fill-opacity="1" /><path clip-path="url(#clip450)" d="M1194.46 24.0859 L1194.46 46.8115 L1204.75 46.8115 Q1210.47 46.8115 1213.58 43.8543 Q1216.7 40.8972 1216.7 35.4284 Q1216.7 30.0002 1213.58 27.0431 Q1210.47 24.0859 1204.75 24.0859 L1194.46 24.0859 M1186.28 17.3614 L1204.75 17.3614 Q1214.92 17.3614 1220.11 21.9794 Q1225.33 26.557 1225.33 35.4284 Q1225.33 44.3809 1220.11 48.9585 Q1214.92 53.536 1204.75 53.536 L1194.46 53.536 L1194.46 77.8414 L1186.28 77.8414 L1186.28 17.3614 Z" fill="#000000" fill-rule="evenodd" fill-opacity="1" /><path clip-path="url(#clip450)" d="M1235.99 14.8093 L1243.44 14.8093 L1243.44 77.8414 L1235.99 77.8414 L1235.99 14.8093 Z" fill="#000000" fill-rule="evenodd" fill-opacity="1" /><path clip-path="url(#clip450)" d="M1276.62 37.6969 Q1270.62 37.6969 1267.14 42.396 Q1263.65 47.0545 1263.65 55.1968 Q1263.65 63.3392 1267.1 68.0382 Q1270.58 72.6968 1276.62 72.6968 Q1282.57 72.6968 1286.06 67.9977 Q1289.54 63.2987 1289.54 55.1968 Q1289.54 47.1355 1286.06 42.4365 Q1282.57 37.6969 1276.62 37.6969 M1276.62 31.3775 Q1286.34 31.3775 1291.89 37.6969 Q1297.44 44.0163 1297.44 55.1968 Q1297.44 66.3368 1291.89 72.6968 Q1286.34 79.0162 1276.62 79.0162 Q1266.85 79.0162 1261.3 72.6968 Q1255.8 66.3368 1255.8 55.1968 Q1255.8 44.0163 1261.3 37.6969 Q1266.85 31.3775 1276.62 31.3775 Z" fill="#000000" fill-rule="evenodd" fill-opacity="1" /><path clip-path="url(#clip450)" d="M1317.17 19.5894 L1317.17 32.4713 L1332.52 32.4713 L1332.52 38.2641 L1317.17 38.2641 L1317.17 62.8936 Q1317.17 68.4433 1318.67 70.0232 Q1320.2 71.603 1324.86 71.603 L1332.52 71.603 L1332.52 77.8414 L1324.86 77.8414 Q1316.23 77.8414 1312.95 74.6412 Q1309.67 71.4005 1309.67 62.8936 L1309.67 38.2641 L1304.2 38.2641 L1304.2 32.4713 L1309.67 32.4713 L1309.67 19.5894 L1317.17 19.5894 Z" fill="#000000" fill-rule="evenodd" fill-opacity="1" /><path clip-path="url(#clip450)" d="M1386.27 37.6969 Q1380.28 37.6969 1376.8 42.396 Q1373.31 47.0545 1373.31 55.1968 Q1373.31 63.3392 1376.76 68.0382 Q1380.24 72.6968 1386.27 72.6968 Q1392.23 72.6968 1395.71 67.9977 Q1399.2 63.2987 1399.2 55.1968 Q1399.2 47.1355 1395.71 42.4365 Q1392.23 37.6969 1386.27 37.6969 M1386.27 31.3775 Q1396 31.3775 1401.55 37.6969 Q1407.1 44.0163 1407.1 55.1968 Q1407.1 66.3368 1401.55 72.6968 Q1396 79.0162 1386.27 79.0162 Q1376.51 79.0162 1370.96 72.6968 Q1365.45 66.3368 1365.45 55.1968 Q1365.45 44.0163 1370.96 37.6969 Q1376.51 31.3775 1386.27 31.3775 Z" fill="#000000" fill-rule="evenodd" fill-opacity="1" /><path clip-path="url(#clip450)" d="M1442.42 14.8093 L1442.42 21.0072 L1435.29 21.0072 Q1431.28 21.0072 1429.7 22.6276 Q1428.16 24.2479 1428.16 28.4609 L1428.16 32.4713 L1440.44 32.4713 L1440.44 38.2641 L1428.16 38.2641 L1428.16 77.8414 L1420.67 77.8414 L1420.67 38.2641 L1413.54 38.2641 L1413.54 32.4713 L1420.67 32.4713 L1420.67 29.3116 Q1420.67 21.7364 1424.19 18.2931 Q1427.72 14.8093 1435.37 14.8093 L1442.42 14.8093 Z" fill="#000000" fill-rule="evenodd" fill-opacity="1" /><path clip-path="url(#clip450)" d="M1505.95 43.9433 Q1505.95 44.5171 1505.58 45.8698 L1497.54 77.9234 Q1495.78 85.0555 1490.04 90.0562 Q1484.35 95.0569 1477.87 95.0569 Q1473.98 95.0569 1471.47 92.9664 Q1468.97 90.917 1468.97 87.7608 Q1468.97 84.9735 1470.45 83.6209 Q1471.93 82.3092 1473.69 82.3092 Q1474.26 82.3092 1474.88 82.4732 Q1475.49 82.6371 1476.15 83.334 Q1476.8 84.0308 1476.8 85.2195 Q1476.8 87.146 1475.12 88.6626 Q1474.3 89.3594 1473.52 89.5233 Q1472.79 89.6873 1471.52 89.6873 Q1472.01 90.835 1472.91 91.6138 Q1473.81 92.3926 1474.84 92.6795 Q1475.86 93.0074 1476.52 93.0894 Q1477.21 93.2124 1477.87 93.2124 Q1483.12 93.2124 1487.13 87.9248 Q1488.32 86.3262 1489.18 84.7276 Q1490.08 83.17 1490.74 81.2435 Q1491.4 79.358 1491.68 78.3333 Q1492.01 77.3085 1492.58 74.9722 Q1488.77 78.7842 1484.1 78.7842 Q1482.13 78.7842 1480.37 78.2513 Q1478.65 77.7184 1477.13 76.6117 Q1475.61 75.464 1474.71 73.4555 Q1473.85 71.4471 1473.85 68.7828 Q1473.85 65.9545 1474.96 62.1015 Q1476.07 58.2485 1478.73 51.1574 Q1480.16 47.1814 1480.16 45.2549 Q1480.16 44.3122 1479.96 43.7383 Q1479.75 43.1235 1479.34 42.9185 Q1478.93 42.6726 1478.69 42.6316 Q1478.48 42.5906 1478.07 42.5906 Q1475.66 42.5906 1473.4 45.05 Q1471.15 47.5093 1469.59 53.0019 Q1469.26 54.0266 1469.06 54.2726 Q1468.85 54.5185 1468.24 54.5185 Q1467.21 54.4775 1467.21 53.6577 Q1467.21 53.3298 1467.58 52.0591 Q1467.95 50.7475 1468.81 48.821 Q1469.71 46.8535 1470.94 45.091 Q1472.17 43.2874 1474.1 42.0168 Q1476.07 40.7461 1478.32 40.7461 Q1481.39 40.7461 1483.28 42.7546 Q1485.21 44.7221 1485.21 47.6323 Q1485.21 48.821 1484.88 49.8867 Q1484.59 50.9114 1483.53 53.6577 Q1479.22 64.7248 1479.22 70.1354 Q1479.22 71.4471 1479.43 72.5538 Q1479.67 73.6195 1480.21 74.6852 Q1480.74 75.71 1481.8 76.3248 Q1482.91 76.8986 1484.43 76.8986 Q1486.35 76.8986 1488.16 75.9969 Q1490 75.0541 1491.15 73.7835 Q1492.34 72.5128 1493.04 71.4471 Q1493.77 70.3404 1493.94 69.7665 L1497.71 54.6825 L1499.39 47.9602 Q1500.17 44.3122 1500.54 43.4104 Q1501.03 42.5496 1501.89 42.0987 Q1502.75 41.6479 1503.49 41.6479 Q1504.51 41.6479 1505.21 42.2627 Q1505.95 42.8775 1505.95 43.9433 Z" fill="#000000" fill-rule="evenodd" fill-opacity="1" /><path clip-path="url(#clip450)" d="M1531.22 65.0937 Q1531.3 64.069 1532.9 64.069 L1584.34 64.069 Q1586.76 64.069 1586.8 65.0118 Q1586.8 66.0365 1584.51 65.9955 L1533.47 65.9955 Q1531.22 66.0365 1531.22 65.0937 M1531.22 48.698 Q1531.22 47.6733 1532.98 47.7143 L1584.26 47.7143 Q1586.76 47.7143 1586.8 48.698 Q1586.8 49.6408 1584.67 49.6408 L1532.9 49.6408 Q1531.22 49.6408 1531.22 48.698 Z" fill="#000000" fill-rule="evenodd" fill-opacity="1" /><path clip-path="url(#clip450)" d="M1660.99 46.2797 Q1660.99 48.5751 1659.55 49.8867 Q1658.12 51.1574 1656.48 51.1574 Q1654.92 51.1574 1654.1 50.2556 Q1653.28 49.3539 1653.28 48.2062 Q1653.28 46.6486 1654.43 45.2959 Q1655.58 43.9433 1657.3 43.6563 Q1655.62 42.5906 1653.12 42.5906 Q1651.48 42.5906 1650.04 43.4514 Q1648.65 44.3122 1647.79 45.4189 Q1646.97 46.5256 1646.23 48.1242 Q1645.54 49.6818 1645.25 50.6245 Q1645 51.5263 1644.8 52.51 L1641.93 63.987 Q1640.54 69.4386 1640.54 71.3651 Q1640.54 73.7425 1641.68 75.3411 Q1642.83 76.8986 1645.13 76.8986 Q1646.03 76.8986 1647.05 76.6527 Q1648.08 76.3658 1649.39 75.628 Q1650.74 74.8492 1651.93 73.7015 Q1653.16 72.5128 1654.35 70.5043 Q1655.54 68.4958 1656.32 65.9135 Q1656.56 65.0118 1657.38 65.0118 Q1658.41 65.0118 1658.41 65.8315 Q1658.41 66.5284 1657.83 68.004 Q1657.3 69.4386 1656.11 71.3241 Q1654.96 73.1686 1653.45 74.8492 Q1651.93 76.4888 1649.68 77.6365 Q1647.42 78.7842 1644.96 78.7842 Q1641.44 78.7842 1639.1 76.8986 Q1636.76 75.0131 1635.9 72.3898 Q1635.7 72.7587 1635.41 73.2506 Q1635.12 73.7425 1634.26 74.8492 Q1633.44 75.9149 1632.5 76.7347 Q1631.56 77.5135 1630.08 78.1283 Q1628.65 78.7842 1627.09 78.7842 Q1625.12 78.7842 1623.36 78.2103 Q1621.64 77.6365 1620.41 76.3248 Q1619.18 75.0131 1619.18 73.2096 Q1619.18 71.2011 1620.53 69.8075 Q1621.93 68.3729 1623.81 68.3729 Q1625 68.3729 1625.94 69.0697 Q1626.93 69.7665 1626.93 71.2831 Q1626.93 72.9637 1625.78 74.2343 Q1624.63 75.505 1622.99 75.8329 Q1624.67 76.8986 1627.17 76.8986 Q1629.88 76.8986 1632.01 74.5213 Q1634.14 72.1439 1635.17 68.1679 Q1637.71 58.6174 1638.69 54.3545 Q1639.67 50.0507 1639.67 48.2062 Q1639.67 46.4846 1639.22 45.2959 Q1638.77 44.1072 1637.99 43.5744 Q1637.26 43.0005 1636.56 42.7956 Q1635.9 42.5906 1635.17 42.5906 Q1633.94 42.5906 1632.54 43.0825 Q1631.19 43.5744 1629.55 44.7221 Q1627.95 45.8288 1626.43 48.1242 Q1624.92 50.4196 1623.89 53.5757 Q1623.69 54.5185 1622.79 54.5185 Q1621.8 54.4775 1621.8 53.6577 Q1621.8 52.9609 1622.34 51.5263 Q1622.91 50.0507 1624.06 48.2062 Q1625.25 46.3616 1626.76 44.7221 Q1628.32 43.0415 1630.57 41.8938 Q1632.87 40.7461 1635.33 40.7461 Q1636.44 40.7461 1637.5 40.992 Q1638.61 41.197 1639.92 41.8118 Q1641.27 42.4267 1642.46 43.7793 Q1643.65 45.132 1644.39 47.0994 Q1644.88 46.1567 1645.54 45.2549 Q1646.23 44.3532 1647.3 43.2464 Q1648.41 42.0987 1649.92 41.4429 Q1651.48 40.7461 1653.2 40.7461 Q1654.88 40.7461 1656.52 41.197 Q1658.16 41.6069 1659.55 42.9595 Q1660.99 44.2712 1660.99 46.2797 Z" fill="#000000" fill-rule="evenodd" fill-opacity="1" /><path clip-path="url(#clip450)" d="M1669.54 52.7366 Q1669.54 51.675 1669.63 51.3594 Q1669.75 51.0437 1670.2 50.556 L1681.48 37.9887 Q1687.65 31.0451 1687.65 24.991 Q1687.65 21.0601 1685.58 18.2482 Q1683.55 15.4364 1679.79 15.4364 Q1677.21 15.4364 1675.03 17.0144 Q1672.84 18.5925 1671.84 21.4044 Q1672.01 21.347 1672.61 21.347 Q1674.08 21.347 1674.88 22.2652 Q1675.71 23.1833 1675.71 24.4171 Q1675.71 25.9952 1674.68 26.7699 Q1673.68 27.5159 1672.67 27.5159 Q1672.27 27.5159 1671.73 27.4298 Q1671.21 27.3437 1670.38 26.5404 Q1669.54 25.7083 1669.54 24.245 Q1669.54 20.1419 1672.64 16.871 Q1675.77 13.6 1680.53 13.6 Q1685.93 13.6 1689.46 16.8136 Q1693.02 19.9985 1693.02 24.991 Q1693.02 26.7412 1692.47 28.348 Q1691.95 29.9261 1691.24 31.1598 Q1690.55 32.3936 1688.65 34.3734 Q1686.76 36.3532 1685.24 37.7591 Q1683.72 39.1651 1680.3 42.1491 L1674.08 48.2032 L1684.67 48.2032 Q1689.83 48.2032 1690.23 47.7441 Q1690.81 46.912 1691.52 42.5221 L1693.02 42.5221 L1691.35 52.7366 L1669.54 52.7366 Z" fill="#000000" fill-rule="evenodd" fill-opacity="1" /><path clip-path="url(#clip450)" d="M1701.74 67.5521 L1710.29 67.5521 L1710.29 77.8414 L1701.74 77.8414 L1701.74 67.5521 Z" fill="#000000" fill-rule="evenodd" fill-opacity="1" /><polyline clip-path="url(#clip452)" style="stroke:#009af9; stroke-linecap:butt; stroke-linejoin:round; stroke-width:8; stroke-opacity:1; fill:none" points="
  323.315,173.254 334.564,203.411 345.814,233.264 357.064,262.814 368.313,292.062 379.563,321.006 390.813,349.647 402.063,377.985 413.312,406.02 424.562,433.752 
  435.812,461.18 447.061,488.306 458.311,515.129 469.561,541.648 480.811,567.865 492.06,593.778 503.31,619.388 514.56,644.695 525.809,669.699 537.059,694.4 
  548.309,718.798 559.559,742.893 570.808,766.685 582.058,790.174 593.308,813.359 604.557,836.242 615.807,858.821 627.057,881.098 638.307,903.071 649.556,924.741 
  660.806,946.109 672.056,967.173 683.305,987.934 694.555,1008.39 705.805,1028.55 717.055,1048.4 728.304,1067.95 739.554,1087.19 750.804,1106.13 762.053,1124.77 
  773.303,1143.11 784.553,1161.14 795.803,1178.87 807.052,1196.3 818.302,1213.43 829.552,1230.25 840.802,1246.76 852.051,1262.98 863.301,1278.89 874.551,1294.5 
  885.8,1309.8 897.05,1324.81 908.3,1339.51 919.55,1353.9 930.799,1368 942.049,1381.79 953.299,1395.27 964.548,1408.46 975.798,1421.34 987.048,1433.92 
  998.298,1446.19 1009.55,1458.16 1020.8,1469.83 1032.05,1481.2 1043.3,1492.26 1054.55,1503.02 1065.8,1513.47 1077.05,1523.63 1088.3,1533.48 1099.54,1543.02 
  1110.79,1552.27 1122.04,1561.21 1133.29,1569.85 1144.54,1578.18 1155.79,1586.21 1167.04,1593.94 1178.29,1601.37 1189.54,1608.49 1200.79,1615.31 1212.04,1621.83 
  1223.29,1628.04 1234.54,1633.95 1245.79,1639.56 1257.04,1644.86 1268.29,1649.86 1279.54,1654.56 1290.79,1658.95 1302.04,1663.04 1313.29,1666.83 1324.54,1670.32 
  1335.79,1673.5 1347.04,1676.38 1358.29,1678.96 1369.54,1681.23 1380.79,1683.2 1392.04,1684.87 1403.29,1686.23 1414.54,1687.29 1425.79,1688.05 1437.04,1688.5 
  1448.29,1688.65 1459.54,1688.5 1470.79,1688.05 1482.04,1687.29 1493.28,1686.23 1504.53,1684.87 1515.78,1683.2 1527.03,1681.23 1538.28,1678.96 1549.53,1676.38 
  1560.78,1673.5 1572.03,1670.32 1583.28,1666.83 1594.53,1663.04 1605.78,1658.95 1617.03,1654.56 1628.28,1649.86 1639.53,1644.86 1650.78,1639.56 1662.03,1633.95 
  1673.28,1628.04 1684.53,1621.83 1695.78,1615.31 1707.03,1608.49 1718.28,1601.37 1729.53,1593.94 1740.78,1586.21 1752.03,1578.18 1763.28,1569.85 1774.53,1561.21 
  1785.78,1552.27 1797.03,1543.02 1808.28,1533.48 1819.53,1523.63 1830.78,1513.47 1842.03,1503.02 1853.28,1492.26 1864.53,1481.2 1875.78,1469.83 1887.02,1458.16 
  1898.27,1446.19 1909.52,1433.92 1920.77,1421.34 1932.02,1408.46 1943.27,1395.27 1954.52,1381.79 1965.77,1368 1977.02,1353.9 1988.27,1339.51 1999.52,1324.81 
  2010.77,1309.8 2022.02,1294.5 2033.27,1278.89 2044.52,1262.98 2055.77,1246.76 2067.02,1230.25 2078.27,1213.43 2089.52,1196.3 2100.77,1178.87 2112.02,1161.14 
  2123.27,1143.11 2134.52,1124.77 2145.77,1106.13 2157.02,1087.19 2168.27,1067.95 2179.52,1048.4 2190.77,1028.55 2202.02,1008.39 2213.27,987.934 2224.52,967.173 
  2235.77,946.109 2247.02,924.741 2258.27,903.071 2269.52,881.098 2280.77,858.821 2292.01,836.242 2303.26,813.359 2314.51,790.174 2325.76,766.685 2337.01,742.893 
  2348.26,718.798 2359.51,694.4 2370.76,669.699 2382.01,644.695 2393.26,619.388 2404.51,593.778 2415.76,567.865 2427.01,541.648 2438.26,515.129 2449.51,488.306 
  2460.76,461.18 2472.01,433.752 2483.26,406.02 2494.51,377.985 2505.76,349.647 2517.01,321.006 2528.26,292.062 2539.51,262.814 2550.76,233.264 2562.01,203.411 
  2573.26,173.254 
  "/>
</svg>
