<?xml version="1.0" encoding="utf-8"?>
<svg xmlns="http://www.w3.org/2000/svg" xmlns:xlink="http://www.w3.org/1999/xlink" width="672" height="480" viewBox="0 0 2688 1920">
<defs>
  <clipPath id="clip100">
    <rect x="0" y="0" width="2688" height="1920"/>
  </clipPath>
</defs>
<path clip-path="url(#clip100)" d="
M0 1920 L2688 1920 L2688 0 L0 0  Z
  " fill="#ffffff" fill-rule="evenodd" fill-opacity="1"/>
<defs>
  <clipPath id="clip101">
    <rect x="537" y="0" width="1883" height="1883"/>
  </clipPath>
</defs>
<path clip-path="url(#clip100)" d="
M255.816 1734.12 L2640.76 1734.12 L2640.76 47.2441 L255.816 47.2441  Z
  " fill="#ffffff" fill-rule="evenodd" fill-opacity="1"/>
<defs>
  <clipPath id="clip102">
    <rect x="255" y="47" width="2386" height="1688"/>
  </clipPath>
</defs>
<polyline clip-path="url(#clip102)" style="stroke:#000000; stroke-linecap:butt; stroke-linejoin:round; stroke-width:2; stroke-opacity:0.1; fill:none" points="
  323.315,1734.12 323.315,47.2441 
  "/>
<polyline clip-path="url(#clip102)" style="stroke:#000000; stroke-linecap:butt; stroke-linejoin:round; stroke-width:2; stroke-opacity:0.1; fill:none" points="
  885.8,1734.12 885.8,47.2441 
  "/>
<polyline clip-path="url(#clip102)" style="stroke:#000000; stroke-linecap:butt; stroke-linejoin:round; stroke-width:2; stroke-opacity:0.1; fill:none" points="
  1448.29,1734.12 1448.29,47.2441 
  "/>
<polyline clip-path="url(#clip102)" style="stroke:#000000; stroke-linecap:butt; stroke-linejoin:round; stroke-width:2; stroke-opacity:0.1; fill:none" points="
  2010.77,1734.12 2010.77,47.2441 
  "/>
<polyline clip-path="url(#clip102)" style="stroke:#000000; stroke-linecap:butt; stroke-linejoin:round; stroke-width:2; stroke-opacity:0.1; fill:none" points="
  2573.26,1734.12 2573.26,47.2441 
  "/>
<polyline clip-path="url(#clip100)" style="stroke:#000000; stroke-linecap:butt; stroke-linejoin:round; stroke-width:4; stroke-opacity:1; fill:none" points="
  255.816,1734.12 2640.76,1734.12 
  "/>
<polyline clip-path="url(#clip100)" style="stroke:#000000; stroke-linecap:butt; stroke-linejoin:round; stroke-width:4; stroke-opacity:1; fill:none" points="
  323.315,1734.12 323.315,1715.22 
  "/>
<polyline clip-path="url(#clip100)" style="stroke:#000000; stroke-linecap:butt; stroke-linejoin:round; stroke-width:4; stroke-opacity:1; fill:none" points="
  885.8,1734.12 885.8,1715.22 
  "/>
<polyline clip-path="url(#clip100)" style="stroke:#000000; stroke-linecap:butt; stroke-linejoin:round; stroke-width:4; stroke-opacity:1; fill:none" points="
  1448.29,1734.12 1448.29,1715.22 
  "/>
<polyline clip-path="url(#clip100)" style="stroke:#000000; stroke-linecap:butt; stroke-linejoin:round; stroke-width:4; stroke-opacity:1; fill:none" points="
  2010.77,1734.12 2010.77,1715.22 
  "/>
<polyline clip-path="url(#clip100)" style="stroke:#000000; stroke-linecap:butt; stroke-linejoin:round; stroke-width:4; stroke-opacity:1; fill:none" points="
  2573.26,1734.12 2573.26,1715.22 
  "/>
<path clip-path="url(#clip100)" d="M269.843 1781.99 L299.518 1781.99 L299.518 1785.93 L269.843 1785.93 L269.843 1781.99 Z" fill="#000000" fill-rule="evenodd" fill-opacity="1" /><path clip-path="url(#clip100)" d="M310.421 1794.89 L318.06 1794.89 L318.06 1768.52 L309.75 1770.19 L309.75 1765.93 L318.014 1764.26 L322.69 1764.26 L322.69 1794.89 L330.328 1794.89 L330.328 1798.82 L310.421 1798.82 L310.421 1794.89 Z" fill="#000000" fill-rule="evenodd" fill-opacity="1" /><path clip-path="url(#clip100)" d="M339.773 1792.94 L344.657 1792.94 L344.657 1798.82 L339.773 1798.82 L339.773 1792.94 Z" fill="#000000" fill-rule="evenodd" fill-opacity="1" /><path clip-path="url(#clip100)" d="M364.842 1767.34 Q361.231 1767.34 359.402 1770.9 Q357.597 1774.45 357.597 1781.58 Q357.597 1788.68 359.402 1792.25 Q361.231 1795.79 364.842 1795.79 Q368.476 1795.79 370.282 1792.25 Q372.111 1788.68 372.111 1781.58 Q372.111 1774.45 370.282 1770.9 Q368.476 1767.34 364.842 1767.34 M364.842 1763.64 Q370.652 1763.64 373.708 1768.24 Q376.787 1772.83 376.787 1781.58 Q376.787 1790.3 373.708 1794.91 Q370.652 1799.49 364.842 1799.49 Q359.032 1799.49 355.953 1794.91 Q352.898 1790.3 352.898 1781.58 Q352.898 1772.83 355.953 1768.24 Q359.032 1763.64 364.842 1763.64 Z" fill="#000000" fill-rule="evenodd" fill-opacity="1" /><path clip-path="url(#clip100)" d="M832.826 1781.99 L862.502 1781.99 L862.502 1785.93 L832.826 1785.93 L832.826 1781.99 Z" fill="#000000" fill-rule="evenodd" fill-opacity="1" /><path clip-path="url(#clip100)" d="M882.594 1767.34 Q878.983 1767.34 877.155 1770.9 Q875.349 1774.45 875.349 1781.58 Q875.349 1788.68 877.155 1792.25 Q878.983 1795.79 882.594 1795.79 Q886.229 1795.79 888.034 1792.25 Q889.863 1788.68 889.863 1781.58 Q889.863 1774.45 888.034 1770.9 Q886.229 1767.34 882.594 1767.34 M882.594 1763.64 Q888.405 1763.64 891.46 1768.24 Q894.539 1772.83 894.539 1781.58 Q894.539 1790.3 891.46 1794.91 Q888.405 1799.49 882.594 1799.49 Q876.784 1799.49 873.706 1794.91 Q870.65 1790.3 870.65 1781.58 Q870.65 1772.83 873.706 1768.24 Q876.784 1763.64 882.594 1763.64 Z" fill="#000000" fill-rule="evenodd" fill-opacity="1" /><path clip-path="url(#clip100)" d="M902.756 1792.94 L907.641 1792.94 L907.641 1798.82 L902.756 1798.82 L902.756 1792.94 Z" fill="#000000" fill-rule="evenodd" fill-opacity="1" /><path clip-path="url(#clip100)" d="M917.872 1764.26 L936.228 1764.26 L936.228 1768.2 L922.154 1768.2 L922.154 1776.67 Q923.173 1776.32 924.191 1776.16 Q925.21 1775.97 926.228 1775.97 Q932.015 1775.97 935.395 1779.15 Q938.775 1782.32 938.775 1787.73 Q938.775 1793.31 935.302 1796.41 Q931.83 1799.49 925.511 1799.49 Q923.335 1799.49 921.066 1799.12 Q918.821 1798.75 916.414 1798.01 L916.414 1793.31 Q918.497 1794.45 920.719 1795 Q922.941 1795.56 925.418 1795.56 Q929.423 1795.56 931.761 1793.45 Q934.099 1791.34 934.099 1787.73 Q934.099 1784.12 931.761 1782.02 Q929.423 1779.91 925.418 1779.91 Q923.543 1779.91 921.668 1780.33 Q919.816 1780.74 917.872 1781.62 L917.872 1764.26 Z" fill="#000000" fill-rule="evenodd" fill-opacity="1" /><path clip-path="url(#clip100)" d="M1425.67 1767.34 Q1422.06 1767.34 1420.23 1770.9 Q1418.43 1774.45 1418.43 1781.58 Q1418.43 1788.68 1420.23 1792.25 Q1422.06 1795.79 1425.67 1795.79 Q1429.3 1795.79 1431.11 1792.25 Q1432.94 1788.68 1432.94 1781.58 Q1432.94 1774.45 1431.11 1770.9 Q1429.3 1767.34 1425.67 1767.34 M1425.67 1763.64 Q1431.48 1763.64 1434.54 1768.24 Q1437.61 1772.83 1437.61 1781.58 Q1437.61 1790.3 1434.54 1794.91 Q1431.48 1799.49 1425.67 1799.49 Q1419.86 1799.49 1416.78 1794.91 Q1413.73 1790.3 1413.73 1781.58 Q1413.73 1772.83 1416.78 1768.24 Q1419.86 1763.64 1425.67 1763.64 Z" fill="#000000" fill-rule="evenodd" fill-opacity="1" /><path clip-path="url(#clip100)" d="M1445.83 1792.94 L1450.72 1792.94 L1450.72 1798.82 L1445.83 1798.82 L1445.83 1792.94 Z" fill="#000000" fill-rule="evenodd" fill-opacity="1" /><path clip-path="url(#clip100)" d="M1470.9 1767.34 Q1467.29 1767.34 1465.46 1770.9 Q1463.66 1774.45 1463.66 1781.58 Q1463.66 1788.68 1465.46 1792.25 Q1467.29 1795.79 1470.9 1795.79 Q1474.54 1795.79 1476.34 1792.25 Q1478.17 1788.68 1478.17 1781.58 Q1478.17 1774.45 1476.34 1770.9 Q1474.54 1767.34 1470.9 1767.34 M1470.9 1763.64 Q1476.71 1763.64 1479.77 1768.24 Q1482.85 1772.83 1482.85 1781.58 Q1482.85 1790.3 1479.77 1794.91 Q1476.71 1799.49 1470.9 1799.49 Q1465.09 1799.49 1462.01 1794.91 Q1458.96 1790.3 1458.96 1781.58 Q1458.96 1772.83 1462.01 1768.24 Q1465.09 1763.64 1470.9 1763.64 Z" fill="#000000" fill-rule="evenodd" fill-opacity="1" /><path clip-path="url(#clip100)" d="M1988.65 1767.34 Q1985.04 1767.34 1983.21 1770.9 Q1981.41 1774.45 1981.41 1781.58 Q1981.41 1788.68 1983.21 1792.25 Q1985.04 1795.79 1988.65 1795.79 Q1992.29 1795.79 1994.09 1792.25 Q1995.92 1788.68 1995.92 1781.58 Q1995.92 1774.45 1994.09 1770.9 Q1992.29 1767.34 1988.65 1767.34 M1988.65 1763.64 Q1994.46 1763.64 1997.52 1768.24 Q2000.6 1772.83 2000.6 1781.58 Q2000.6 1790.3 1997.52 1794.91 Q1994.46 1799.49 1988.65 1799.49 Q1982.84 1799.49 1979.77 1794.91 Q1976.71 1790.3 1976.71 1781.58 Q1976.71 1772.83 1979.77 1768.24 Q1982.84 1763.64 1988.65 1763.64 Z" fill="#000000" fill-rule="evenodd" fill-opacity="1" /><path clip-path="url(#clip100)" d="M2008.82 1792.94 L2013.7 1792.94 L2013.7 1798.82 L2008.82 1798.82 L2008.82 1792.94 Z" fill="#000000" fill-rule="evenodd" fill-opacity="1" /><path clip-path="url(#clip100)" d="M2023.93 1764.26 L2042.29 1764.26 L2042.29 1768.2 L2028.21 1768.2 L2028.21 1776.67 Q2029.23 1776.32 2030.25 1776.16 Q2031.27 1775.97 2032.29 1775.97 Q2038.07 1775.97 2041.45 1779.15 Q2044.83 1782.32 2044.83 1787.73 Q2044.83 1793.31 2041.36 1796.41 Q2037.89 1799.49 2031.57 1799.49 Q2029.39 1799.49 2027.13 1799.12 Q2024.88 1798.75 2022.47 1798.01 L2022.47 1793.31 Q2024.56 1794.45 2026.78 1795 Q2029 1795.56 2031.48 1795.56 Q2035.48 1795.56 2037.82 1793.45 Q2040.16 1791.34 2040.16 1787.73 Q2040.16 1784.12 2037.82 1782.02 Q2035.48 1779.91 2031.48 1779.91 Q2029.6 1779.91 2027.73 1780.33 Q2025.88 1780.74 2023.93 1781.62 L2023.93 1764.26 Z" fill="#000000" fill-rule="evenodd" fill-opacity="1" /><path clip-path="url(#clip100)" d="M2540.41 1794.89 L2548.05 1794.89 L2548.05 1768.52 L2539.74 1770.19 L2539.74 1765.93 L2548 1764.26 L2552.68 1764.26 L2552.68 1794.89 L2560.32 1794.89 L2560.32 1798.82 L2540.41 1798.82 L2540.41 1794.89 Z" fill="#000000" fill-rule="evenodd" fill-opacity="1" /><path clip-path="url(#clip100)" d="M2569.76 1792.94 L2574.65 1792.94 L2574.65 1798.82 L2569.76 1798.82 L2569.76 1792.94 Z" fill="#000000" fill-rule="evenodd" fill-opacity="1" /><path clip-path="url(#clip100)" d="M2594.83 1767.34 Q2591.22 1767.34 2589.39 1770.9 Q2587.59 1774.45 2587.59 1781.58 Q2587.59 1788.68 2589.39 1792.25 Q2591.22 1795.79 2594.83 1795.79 Q2598.47 1795.79 2600.27 1792.25 Q2602.1 1788.68 2602.1 1781.58 Q2602.1 1774.45 2600.27 1770.9 Q2598.47 1767.34 2594.83 1767.34 M2594.83 1763.64 Q2600.64 1763.64 2603.7 1768.24 Q2606.78 1772.83 2606.78 1781.58 Q2606.78 1790.3 2603.7 1794.91 Q2600.64 1799.49 2594.83 1799.49 Q2589.02 1799.49 2585.94 1794.91 Q2582.89 1790.3 2582.89 1781.58 Q2582.89 1772.83 2585.94 1768.24 Q2589.02 1763.64 2594.83 1763.64 Z" fill="#000000" fill-rule="evenodd" fill-opacity="1" /><path clip-path="url(#clip100)" d="M1464.9 1847.65 L1452.01 1865 L1465.57 1883.3 L1458.66 1883.3 L1448.29 1869.3 L1437.91 1883.3 L1431 1883.3 L1444.85 1864.65 L1432.18 1847.65 L1439.09 1847.65 L1448.54 1860.35 L1457.99 1847.65 L1464.9 1847.65 Z" fill="#000000" fill-rule="evenodd" fill-opacity="1" /><polyline clip-path="url(#clip102)" style="stroke:#000000; stroke-linecap:butt; stroke-linejoin:round; stroke-width:2; stroke-opacity:0.1; fill:none" points="
  255.816,1686.38 2640.76,1686.38 
  "/>
<polyline clip-path="url(#clip102)" style="stroke:#000000; stroke-linecap:butt; stroke-linejoin:round; stroke-width:2; stroke-opacity:0.1; fill:none" points="
  255.816,1288.53 2640.76,1288.53 
  "/>
<polyline clip-path="url(#clip102)" style="stroke:#000000; stroke-linecap:butt; stroke-linejoin:round; stroke-width:2; stroke-opacity:0.1; fill:none" points="
  255.816,890.681 2640.76,890.681 
  "/>
<polyline clip-path="url(#clip102)" style="stroke:#000000; stroke-linecap:butt; stroke-linejoin:round; stroke-width:2; stroke-opacity:0.1; fill:none" points="
  255.816,492.833 2640.76,492.833 
  "/>
<polyline clip-path="url(#clip102)" style="stroke:#000000; stroke-linecap:butt; stroke-linejoin:round; stroke-width:2; stroke-opacity:0.1; fill:none" points="
  255.816,94.9858 2640.76,94.9858 
  "/>
<polyline clip-path="url(#clip100)" style="stroke:#000000; stroke-linecap:butt; stroke-linejoin:round; stroke-width:4; stroke-opacity:1; fill:none" points="
  255.816,1734.12 255.816,47.2441 
  "/>
<polyline clip-path="url(#clip100)" style="stroke:#000000; stroke-linecap:butt; stroke-linejoin:round; stroke-width:4; stroke-opacity:1; fill:none" points="
  255.816,1686.38 274.714,1686.38 
  "/>
<polyline clip-path="url(#clip100)" style="stroke:#000000; stroke-linecap:butt; stroke-linejoin:round; stroke-width:4; stroke-opacity:1; fill:none" points="
  255.816,1288.53 274.714,1288.53 
  "/>
<polyline clip-path="url(#clip100)" style="stroke:#000000; stroke-linecap:butt; stroke-linejoin:round; stroke-width:4; stroke-opacity:1; fill:none" points="
  255.816,890.681 274.714,890.681 
  "/>
<polyline clip-path="url(#clip100)" style="stroke:#000000; stroke-linecap:butt; stroke-linejoin:round; stroke-width:4; stroke-opacity:1; fill:none" points="
  255.816,492.833 274.714,492.833 
  "/>
<polyline clip-path="url(#clip100)" style="stroke:#000000; stroke-linecap:butt; stroke-linejoin:round; stroke-width:4; stroke-opacity:1; fill:none" points="
  255.816,94.9858 274.714,94.9858 
  "/>
<path clip-path="url(#clip100)" d="M128.159 1672.17 Q124.548 1672.17 122.719 1675.74 Q120.913 1679.28 120.913 1686.41 Q120.913 1693.52 122.719 1697.08 Q124.548 1700.62 128.159 1700.62 Q131.793 1700.62 133.599 1697.08 Q135.427 1693.52 135.427 1686.41 Q135.427 1679.28 133.599 1675.74 Q131.793 1672.17 128.159 1672.17 M128.159 1668.47 Q133.969 1668.47 137.025 1673.08 Q140.103 1677.66 140.103 1686.41 Q140.103 1695.14 137.025 1699.74 Q133.969 1704.33 128.159 1704.33 Q122.349 1704.33 119.27 1699.74 Q116.214 1695.14 116.214 1686.41 Q116.214 1677.66 119.27 1673.08 Q122.349 1668.47 128.159 1668.47 Z" fill="#000000" fill-rule="evenodd" fill-opacity="1" /><path clip-path="url(#clip100)" d="M148.321 1697.78 L153.205 1697.78 L153.205 1703.66 L148.321 1703.66 L148.321 1697.78 Z" fill="#000000" fill-rule="evenodd" fill-opacity="1" /><path clip-path="url(#clip100)" d="M173.39 1672.17 Q169.779 1672.17 167.95 1675.74 Q166.145 1679.28 166.145 1686.41 Q166.145 1693.52 167.95 1697.08 Q169.779 1700.62 173.39 1700.62 Q177.024 1700.62 178.83 1697.08 Q180.659 1693.52 180.659 1686.41 Q180.659 1679.28 178.83 1675.74 Q177.024 1672.17 173.39 1672.17 M173.39 1668.47 Q179.2 1668.47 182.256 1673.08 Q185.334 1677.66 185.334 1686.41 Q185.334 1695.14 182.256 1699.74 Q179.2 1704.33 173.39 1704.33 Q167.58 1704.33 164.501 1699.74 Q161.446 1695.14 161.446 1686.41 Q161.446 1677.66 164.501 1673.08 Q167.58 1668.47 173.39 1668.47 Z" fill="#000000" fill-rule="evenodd" fill-opacity="1" /><path clip-path="url(#clip100)" d="M203.552 1672.17 Q199.941 1672.17 198.112 1675.74 Q196.307 1679.28 196.307 1686.41 Q196.307 1693.52 198.112 1697.08 Q199.941 1700.62 203.552 1700.62 Q207.186 1700.62 208.992 1697.08 Q210.82 1693.52 210.82 1686.41 Q210.82 1679.28 208.992 1675.74 Q207.186 1672.17 203.552 1672.17 M203.552 1668.47 Q209.362 1668.47 212.418 1673.08 Q215.496 1677.66 215.496 1686.41 Q215.496 1695.14 212.418 1699.74 Q209.362 1704.33 203.552 1704.33 Q197.742 1704.33 194.663 1699.74 Q191.608 1695.14 191.608 1686.41 Q191.608 1677.66 194.663 1673.08 Q197.742 1668.47 203.552 1668.47 Z" fill="#000000" fill-rule="evenodd" fill-opacity="1" /><path clip-path="url(#clip100)" d="M129.154 1274.33 Q125.543 1274.33 123.714 1277.89 Q121.909 1281.43 121.909 1288.56 Q121.909 1295.67 123.714 1299.23 Q125.543 1302.78 129.154 1302.78 Q132.788 1302.78 134.594 1299.23 Q136.423 1295.67 136.423 1288.56 Q136.423 1281.43 134.594 1277.89 Q132.788 1274.33 129.154 1274.33 M129.154 1270.62 Q134.964 1270.62 138.02 1275.23 Q141.099 1279.81 141.099 1288.56 Q141.099 1297.29 138.02 1301.9 Q134.964 1306.48 129.154 1306.48 Q123.344 1306.48 120.265 1301.9 Q117.21 1297.29 117.21 1288.56 Q117.21 1279.81 120.265 1275.23 Q123.344 1270.62 129.154 1270.62 Z" fill="#000000" fill-rule="evenodd" fill-opacity="1" /><path clip-path="url(#clip100)" d="M149.316 1299.93 L154.2 1299.93 L154.2 1305.81 L149.316 1305.81 L149.316 1299.93 Z" fill="#000000" fill-rule="evenodd" fill-opacity="1" /><path clip-path="url(#clip100)" d="M168.413 1301.87 L184.733 1301.87 L184.733 1305.81 L162.788 1305.81 L162.788 1301.87 Q165.45 1299.12 170.034 1294.49 Q174.64 1289.84 175.821 1288.49 Q178.066 1285.97 178.946 1284.23 Q179.848 1282.47 179.848 1280.78 Q179.848 1278.03 177.904 1276.29 Q175.983 1274.56 172.881 1274.56 Q170.682 1274.56 168.228 1275.32 Q165.798 1276.09 163.02 1277.64 L163.02 1272.91 Q165.844 1271.78 168.297 1271.2 Q170.751 1270.62 172.788 1270.62 Q178.159 1270.62 181.353 1273.31 Q184.547 1275.99 184.547 1280.48 Q184.547 1282.61 183.737 1284.53 Q182.95 1286.43 180.844 1289.03 Q180.265 1289.7 177.163 1292.91 Q174.061 1296.11 168.413 1301.87 Z" fill="#000000" fill-rule="evenodd" fill-opacity="1" /><path clip-path="url(#clip100)" d="M194.594 1271.25 L212.95 1271.25 L212.95 1275.18 L198.876 1275.18 L198.876 1283.66 Q199.895 1283.31 200.913 1283.15 Q201.932 1282.96 202.95 1282.96 Q208.737 1282.96 212.117 1286.13 Q215.496 1289.3 215.496 1294.72 Q215.496 1300.3 212.024 1303.4 Q208.552 1306.48 202.233 1306.48 Q200.057 1306.48 197.788 1306.11 Q195.543 1305.74 193.135 1305 L193.135 1300.3 Q195.219 1301.43 197.441 1301.99 Q199.663 1302.54 202.14 1302.54 Q206.145 1302.54 208.482 1300.44 Q210.82 1298.33 210.82 1294.72 Q210.82 1291.11 208.482 1289 Q206.145 1286.9 202.14 1286.9 Q200.265 1286.9 198.39 1287.31 Q196.538 1287.73 194.594 1288.61 L194.594 1271.25 Z" fill="#000000" fill-rule="evenodd" fill-opacity="1" /><path clip-path="url(#clip100)" d="M128.159 876.479 Q124.548 876.479 122.719 880.044 Q120.913 883.586 120.913 890.715 Q120.913 897.822 122.719 901.387 Q124.548 904.928 128.159 904.928 Q131.793 904.928 133.599 901.387 Q135.427 897.822 135.427 890.715 Q135.427 883.586 133.599 880.044 Q131.793 876.479 128.159 876.479 M128.159 872.776 Q133.969 872.776 137.025 877.382 Q140.103 881.965 140.103 890.715 Q140.103 899.442 137.025 904.049 Q133.969 908.632 128.159 908.632 Q122.349 908.632 119.27 904.049 Q116.214 899.442 116.214 890.715 Q116.214 881.965 119.27 877.382 Q122.349 872.776 128.159 872.776 Z" fill="#000000" fill-rule="evenodd" fill-opacity="1" /><path clip-path="url(#clip100)" d="M148.321 902.081 L153.205 902.081 L153.205 907.961 L148.321 907.961 L148.321 902.081 Z" fill="#000000" fill-rule="evenodd" fill-opacity="1" /><path clip-path="url(#clip100)" d="M163.436 873.401 L181.793 873.401 L181.793 877.336 L167.719 877.336 L167.719 885.808 Q168.737 885.461 169.756 885.299 Q170.774 885.113 171.793 885.113 Q177.58 885.113 180.959 888.285 Q184.339 891.456 184.339 896.873 Q184.339 902.451 180.867 905.553 Q177.395 908.632 171.075 908.632 Q168.899 908.632 166.631 908.261 Q164.385 907.891 161.978 907.15 L161.978 902.451 Q164.061 903.586 166.284 904.141 Q168.506 904.697 170.983 904.697 Q174.987 904.697 177.325 902.59 Q179.663 900.484 179.663 896.873 Q179.663 893.262 177.325 891.155 Q174.987 889.049 170.983 889.049 Q169.108 889.049 167.233 889.465 Q165.381 889.882 163.436 890.762 L163.436 873.401 Z" fill="#000000" fill-rule="evenodd" fill-opacity="1" /><path clip-path="url(#clip100)" d="M203.552 876.479 Q199.941 876.479 198.112 880.044 Q196.307 883.586 196.307 890.715 Q196.307 897.822 198.112 901.387 Q199.941 904.928 203.552 904.928 Q207.186 904.928 208.992 901.387 Q210.82 897.822 210.82 890.715 Q210.82 883.586 208.992 880.044 Q207.186 876.479 203.552 876.479 M203.552 872.776 Q209.362 872.776 212.418 877.382 Q215.496 881.965 215.496 890.715 Q215.496 899.442 212.418 904.049 Q209.362 908.632 203.552 908.632 Q197.742 908.632 194.663 904.049 Q191.608 899.442 191.608 890.715 Q191.608 881.965 194.663 877.382 Q197.742 872.776 203.552 872.776 Z" fill="#000000" fill-rule="evenodd" fill-opacity="1" /><path clip-path="url(#clip100)" d="M129.154 478.632 Q125.543 478.632 123.714 482.197 Q121.909 485.738 121.909 492.868 Q121.909 499.974 123.714 503.539 Q125.543 507.081 129.154 507.081 Q132.788 507.081 134.594 503.539 Q136.423 499.974 136.423 492.868 Q136.423 485.738 134.594 482.197 Q132.788 478.632 129.154 478.632 M129.154 474.928 Q134.964 474.928 138.02 479.535 Q141.099 484.118 141.099 492.868 Q141.099 501.595 138.02 506.201 Q134.964 510.784 129.154 510.784 Q123.344 510.784 120.265 506.201 Q117.21 501.595 117.21 492.868 Q117.21 484.118 120.265 479.535 Q123.344 474.928 129.154 474.928 Z" fill="#000000" fill-rule="evenodd" fill-opacity="1" /><path clip-path="url(#clip100)" d="M149.316 504.234 L154.2 504.234 L154.2 510.113 L149.316 510.113 L149.316 504.234 Z" fill="#000000" fill-rule="evenodd" fill-opacity="1" /><path clip-path="url(#clip100)" d="M163.205 475.553 L185.427 475.553 L185.427 477.544 L172.881 510.113 L167.997 510.113 L179.802 479.488 L163.205 479.488 L163.205 475.553 Z" fill="#000000" fill-rule="evenodd" fill-opacity="1" /><path clip-path="url(#clip100)" d="M194.594 475.553 L212.95 475.553 L212.95 479.488 L198.876 479.488 L198.876 487.961 Q199.895 487.613 200.913 487.451 Q201.932 487.266 202.95 487.266 Q208.737 487.266 212.117 490.437 Q215.496 493.609 215.496 499.025 Q215.496 504.604 212.024 507.706 Q208.552 510.784 202.233 510.784 Q200.057 510.784 197.788 510.414 Q195.543 510.044 193.135 509.303 L193.135 504.604 Q195.219 505.738 197.441 506.294 Q199.663 506.849 202.14 506.849 Q206.145 506.849 208.482 504.743 Q210.82 502.636 210.82 499.025 Q210.82 495.414 208.482 493.308 Q206.145 491.201 202.14 491.201 Q200.265 491.201 198.39 491.618 Q196.538 492.035 194.594 492.914 L194.594 475.553 Z" fill="#000000" fill-rule="evenodd" fill-opacity="1" /><path clip-path="url(#clip100)" d="M118.969 108.331 L126.608 108.331 L126.608 81.965 L118.298 83.6317 L118.298 79.3724 L126.562 77.7058 L131.238 77.7058 L131.238 108.331 L138.876 108.331 L138.876 112.266 L118.969 112.266 L118.969 108.331 Z" fill="#000000" fill-rule="evenodd" fill-opacity="1" /><path clip-path="url(#clip100)" d="M148.321 106.386 L153.205 106.386 L153.205 112.266 L148.321 112.266 L148.321 106.386 Z" fill="#000000" fill-rule="evenodd" fill-opacity="1" /><path clip-path="url(#clip100)" d="M173.39 80.7845 Q169.779 80.7845 167.95 84.3493 Q166.145 87.8909 166.145 95.0205 Q166.145 102.127 167.95 105.692 Q169.779 109.233 173.39 109.233 Q177.024 109.233 178.83 105.692 Q180.659 102.127 180.659 95.0205 Q180.659 87.8909 178.83 84.3493 Q177.024 80.7845 173.39 80.7845 M173.39 77.0808 Q179.2 77.0808 182.256 81.6872 Q185.334 86.2705 185.334 95.0205 Q185.334 103.747 182.256 108.354 Q179.2 112.937 173.39 112.937 Q167.58 112.937 164.501 108.354 Q161.446 103.747 161.446 95.0205 Q161.446 86.2705 164.501 81.6872 Q167.58 77.0808 173.39 77.0808 Z" fill="#000000" fill-rule="evenodd" fill-opacity="1" /><path clip-path="url(#clip100)" d="M203.552 80.7845 Q199.941 80.7845 198.112 84.3493 Q196.307 87.8909 196.307 95.0205 Q196.307 102.127 198.112 105.692 Q199.941 109.233 203.552 109.233 Q207.186 109.233 208.992 105.692 Q210.82 102.127 210.82 95.0205 Q210.82 87.8909 208.992 84.3493 Q207.186 80.7845 203.552 80.7845 M203.552 77.0808 Q209.362 77.0808 212.418 81.6872 Q215.496 86.2705 215.496 95.0205 Q215.496 103.747 212.418 108.354 Q209.362 112.937 203.552 112.937 Q197.742 112.937 194.663 108.354 Q191.608 103.747 191.608 95.0205 Q191.608 86.2705 194.663 81.6872 Q197.742 77.0808 203.552 77.0808 Z" fill="#000000" fill-rule="evenodd" fill-opacity="1" /><path clip-path="url(#clip100)" d="M64.9486 888.994 Q71.3143 891.476 73.2559 893.832 Q75.1974 896.187 75.1974 900.134 L75.1974 904.812 L70.2958 904.812 L70.2958 901.375 Q70.2958 898.956 69.15 897.619 Q68.0041 896.282 63.7391 894.659 L61.0655 893.609 L25.9905 908.027 L25.9905 901.821 L53.8723 890.681 L25.9905 879.541 L25.9905 873.334 L64.9486 888.994 Z" fill="#000000" fill-rule="evenodd" fill-opacity="1" /><polyline clip-path="url(#clip102)" style="stroke:#009af9; stroke-linecap:butt; stroke-linejoin:round; stroke-width:8; stroke-opacity:1; fill:none" points="
  323.315,94.9858 334.564,126.654 345.814,158.005 357.064,189.037 368.313,219.751 379.563,250.146 390.813,280.224 402.063,309.983 413.312,339.423 424.562,368.546 
  435.812,397.35 447.061,425.836 458.311,454.003 469.561,481.853 480.811,509.384 492.06,536.596 503.31,563.491 514.56,590.067 525.809,616.325 537.059,642.265 
  548.309,667.886 559.559,693.189 570.808,718.174 582.058,742.84 593.308,767.189 604.557,791.219 615.807,814.93 627.057,838.324 638.307,861.399 649.556,884.156 
  660.806,906.594 672.056,928.715 683.305,950.517 694.555,972.001 705.805,993.166 717.055,1014.01 728.304,1034.54 739.554,1054.75 750.804,1074.65 762.053,1094.22 
  773.303,1113.48 784.553,1132.41 795.803,1151.03 807.052,1169.33 818.302,1187.32 829.552,1204.98 840.802,1222.33 852.051,1239.35 863.301,1256.06 874.551,1272.45 
  885.8,1288.53 897.05,1304.28 908.3,1319.72 919.55,1334.84 930.799,1349.64 942.049,1364.12 953.299,1378.28 964.548,1392.13 975.798,1405.65 987.048,1418.86 
  998.298,1431.75 1009.55,1444.32 1020.8,1456.58 1032.05,1468.51 1043.3,1480.13 1054.55,1491.43 1065.8,1502.41 1077.05,1513.07 1088.3,1523.42 1099.54,1533.44 
  1110.79,1543.15 1122.04,1552.54 1133.29,1561.61 1144.54,1570.36 1155.79,1578.8 1167.04,1586.91 1178.29,1594.71 1189.54,1602.19 1200.79,1609.35 1212.04,1616.2 
  1223.29,1622.72 1234.54,1628.93 1245.79,1634.81 1257.04,1640.38 1268.29,1645.64 1279.54,1650.57 1290.79,1655.18 1302.04,1659.48 1313.29,1663.46 1324.54,1667.12 
  1335.79,1670.46 1347.04,1673.49 1358.29,1676.19 1369.54,1678.58 1380.79,1680.65 1392.04,1682.4 1403.29,1683.83 1414.54,1684.94 1425.79,1685.74 1437.04,1686.22 
  1448.29,1686.38 1459.54,1686.22 1470.79,1685.74 1482.04,1684.94 1493.28,1683.83 1504.53,1682.4 1515.78,1680.65 1527.03,1678.58 1538.28,1676.19 1549.53,1673.49 
  1560.78,1670.46 1572.03,1667.12 1583.28,1663.46 1594.53,1659.48 1605.78,1655.18 1617.03,1650.57 1628.28,1645.64 1639.53,1640.38 1650.78,1634.81 1662.03,1628.93 
  1673.28,1622.72 1684.53,1616.2 1695.78,1609.35 1707.03,1602.19 1718.28,1594.71 1729.53,1586.91 1740.78,1578.8 1752.03,1570.36 1763.28,1561.61 1774.53,1552.54 
  1785.78,1543.15 1797.03,1533.44 1808.28,1523.42 1819.53,1513.07 1830.78,1502.41 1842.03,1491.43 1853.28,1480.13 1864.53,1468.51 1875.78,1456.58 1887.02,1444.32 
  1898.27,1431.75 1909.52,1418.86 1920.77,1405.65 1932.02,1392.13 1943.27,1378.28 1954.52,1364.12 1965.77,1349.64 1977.02,1334.84 1988.27,1319.72 1999.52,1304.28 
  2010.77,1288.53 2022.02,1272.45 2033.27,1256.06 2044.52,1239.35 2055.77,1222.33 2067.02,1204.98 2078.27,1187.32 2089.52,1169.33 2100.77,1151.03 2112.02,1132.41 
  2123.27,1113.48 2134.52,1094.22 2145.77,1074.65 2157.02,1054.75 2168.27,1034.54 2179.52,1014.01 2190.77,993.166 2202.02,972.001 2213.27,950.517 2224.52,928.715 
  2235.77,906.594 2247.02,884.156 2258.27,861.399 2269.52,838.324 2280.77,814.93 2292.01,791.219 2303.26,767.189 2314.51,742.84 2325.76,718.174 2337.01,693.189 
  2348.26,667.886 2359.51,642.265 2370.76,616.325 2382.01,590.067 2393.26,563.491 2404.51,536.596 2415.76,509.384 2427.01,481.853 2438.26,454.003 2449.51,425.836 
  2460.76,397.35 2472.01,368.546 2483.26,339.423 2494.51,309.983 2505.76,280.224 2517.01,250.146 2528.26,219.751 2539.51,189.037 2550.76,158.005 2562.01,126.654 
  2573.26,94.9858 
  "/>
</svg>
