<?xml version="1.0" encoding="utf-8"?>
<svg xmlns="http://www.w3.org/2000/svg" xmlns:xlink="http://www.w3.org/1999/xlink" width="960" height="480" viewBox="0 0 3840 1920">
<defs>
  <clipPath id="clip840">
    <rect x="0" y="0" width="3840" height="1920"/>
  </clipPath>
</defs>
<path clip-path="url(#clip840)" d="
M0 1920 L3840 1920 L3840 0 L0 0  Z
  " fill="#ffffff" fill-rule="evenodd" fill-opacity="1"/>
<defs>
  <clipPath id="clip841">
    <rect x="768" y="0" width="2689" height="1920"/>
  </clipPath>
</defs>
<path clip-path="url(#clip840)" d="
M252.062 1760.5 L3792.76 1760.5 L3792.76 108.352 L252.062 108.352  Z
  " fill="#ffffff" fill-rule="evenodd" fill-opacity="1"/>
<defs>
  <clipPath id="clip842">
    <rect x="252" y="108" width="3542" height="1653"/>
  </clipPath>
</defs>
<polyline clip-path="url(#clip842)" style="stroke:#000000; stroke-linecap:butt; stroke-linejoin:round; stroke-width:2; stroke-opacity:0.1; fill:none" points="
  352.27,1760.5 352.27,108.352 
  "/>
<polyline clip-path="url(#clip842)" style="stroke:#000000; stroke-linecap:butt; stroke-linejoin:round; stroke-width:2; stroke-opacity:0.1; fill:none" points="
  1187.34,1760.5 1187.34,108.352 
  "/>
<polyline clip-path="url(#clip842)" style="stroke:#000000; stroke-linecap:butt; stroke-linejoin:round; stroke-width:2; stroke-opacity:0.1; fill:none" points="
  2022.41,1760.5 2022.41,108.352 
  "/>
<polyline clip-path="url(#clip842)" style="stroke:#000000; stroke-linecap:butt; stroke-linejoin:round; stroke-width:2; stroke-opacity:0.1; fill:none" points="
  2857.48,1760.5 2857.48,108.352 
  "/>
<polyline clip-path="url(#clip842)" style="stroke:#000000; stroke-linecap:butt; stroke-linejoin:round; stroke-width:2; stroke-opacity:0.1; fill:none" points="
  3692.55,1760.5 3692.55,108.352 
  "/>
<polyline clip-path="url(#clip840)" style="stroke:#000000; stroke-linecap:butt; stroke-linejoin:round; stroke-width:4; stroke-opacity:1; fill:none" points="
  252.062,1760.5 3792.76,1760.5 
  "/>
<polyline clip-path="url(#clip840)" style="stroke:#000000; stroke-linecap:butt; stroke-linejoin:round; stroke-width:4; stroke-opacity:1; fill:none" points="
  352.27,1760.5 352.27,1741.6 
  "/>
<polyline clip-path="url(#clip840)" style="stroke:#000000; stroke-linecap:butt; stroke-linejoin:round; stroke-width:4; stroke-opacity:1; fill:none" points="
  1187.34,1760.5 1187.34,1741.6 
  "/>
<polyline clip-path="url(#clip840)" style="stroke:#000000; stroke-linecap:butt; stroke-linejoin:round; stroke-width:4; stroke-opacity:1; fill:none" points="
  2022.41,1760.5 2022.41,1741.6 
  "/>
<polyline clip-path="url(#clip840)" style="stroke:#000000; stroke-linecap:butt; stroke-linejoin:round; stroke-width:4; stroke-opacity:1; fill:none" points="
  2857.48,1760.5 2857.48,1741.6 
  "/>
<polyline clip-path="url(#clip840)" style="stroke:#000000; stroke-linecap:butt; stroke-linejoin:round; stroke-width:4; stroke-opacity:1; fill:none" points="
  3692.55,1760.5 3692.55,1741.6 
  "/>
<path clip-path="url(#clip840)" d="M298.798 1817.59 L328.474 1817.59 L328.474 1821.53 L298.798 1821.53 L298.798 1817.59 Z" fill="#000000" fill-rule="evenodd" fill-opacity="1" /><path clip-path="url(#clip840)" d="M339.377 1830.48 L347.016 1830.48 L347.016 1804.12 L338.706 1805.79 L338.706 1801.53 L346.969 1799.86 L351.645 1799.86 L351.645 1830.48 L359.284 1830.48 L359.284 1834.42 L339.377 1834.42 L339.377 1830.48 Z" fill="#000000" fill-rule="evenodd" fill-opacity="1" /><path clip-path="url(#clip840)" d="M368.729 1828.54 L373.613 1828.54 L373.613 1834.42 L368.729 1834.42 L368.729 1828.54 Z" fill="#000000" fill-rule="evenodd" fill-opacity="1" /><path clip-path="url(#clip840)" d="M393.798 1802.94 Q390.187 1802.94 388.358 1806.5 Q386.553 1810.04 386.553 1817.17 Q386.553 1824.28 388.358 1827.85 Q390.187 1831.39 393.798 1831.39 Q397.432 1831.39 399.238 1827.85 Q401.066 1824.28 401.066 1817.17 Q401.066 1810.04 399.238 1806.5 Q397.432 1802.94 393.798 1802.94 M393.798 1799.23 Q399.608 1799.23 402.664 1803.84 Q405.742 1808.42 405.742 1817.17 Q405.742 1825.9 402.664 1830.51 Q399.608 1835.09 393.798 1835.09 Q387.988 1835.09 384.909 1830.51 Q381.854 1825.9 381.854 1817.17 Q381.854 1808.42 384.909 1803.84 Q387.988 1799.23 393.798 1799.23 Z" fill="#000000" fill-rule="evenodd" fill-opacity="1" /><path clip-path="url(#clip840)" d="M1134.37 1817.59 L1164.04 1817.59 L1164.04 1821.53 L1134.37 1821.53 L1134.37 1817.59 Z" fill="#000000" fill-rule="evenodd" fill-opacity="1" /><path clip-path="url(#clip840)" d="M1184.13 1802.94 Q1180.52 1802.94 1178.69 1806.5 Q1176.89 1810.04 1176.89 1817.17 Q1176.89 1824.28 1178.69 1827.85 Q1180.52 1831.39 1184.13 1831.39 Q1187.77 1831.39 1189.57 1827.85 Q1191.4 1824.28 1191.4 1817.17 Q1191.4 1810.04 1189.57 1806.5 Q1187.77 1802.94 1184.13 1802.94 M1184.13 1799.23 Q1189.94 1799.23 1193 1803.84 Q1196.08 1808.42 1196.08 1817.17 Q1196.08 1825.9 1193 1830.51 Q1189.94 1835.09 1184.13 1835.09 Q1178.32 1835.09 1175.24 1830.51 Q1172.19 1825.9 1172.19 1817.17 Q1172.19 1808.42 1175.24 1803.84 Q1178.32 1799.23 1184.13 1799.23 Z" fill="#000000" fill-rule="evenodd" fill-opacity="1" /><path clip-path="url(#clip840)" d="M1204.3 1828.54 L1209.18 1828.54 L1209.18 1834.42 L1204.3 1834.42 L1204.3 1828.54 Z" fill="#000000" fill-rule="evenodd" fill-opacity="1" /><path clip-path="url(#clip840)" d="M1219.41 1799.86 L1237.77 1799.86 L1237.77 1803.8 L1223.69 1803.8 L1223.69 1812.27 Q1224.71 1811.92 1225.73 1811.76 Q1226.75 1811.57 1227.77 1811.57 Q1233.55 1811.57 1236.93 1814.74 Q1240.31 1817.92 1240.31 1823.33 Q1240.31 1828.91 1236.84 1832.01 Q1233.37 1835.09 1227.05 1835.09 Q1224.87 1835.09 1222.61 1834.72 Q1220.36 1834.35 1217.95 1833.61 L1217.95 1828.91 Q1220.04 1830.04 1222.26 1830.6 Q1224.48 1831.16 1226.96 1831.16 Q1230.96 1831.16 1233.3 1829.05 Q1235.64 1826.94 1235.64 1823.33 Q1235.64 1819.72 1233.3 1817.61 Q1230.96 1815.51 1226.96 1815.51 Q1225.08 1815.51 1223.21 1815.92 Q1221.36 1816.34 1219.41 1817.22 L1219.41 1799.86 Z" fill="#000000" fill-rule="evenodd" fill-opacity="1" /><path clip-path="url(#clip840)" d="M1999.79 1802.94 Q1996.18 1802.94 1994.35 1806.5 Q1992.55 1810.04 1992.55 1817.17 Q1992.55 1824.28 1994.35 1827.85 Q1996.18 1831.39 1999.79 1831.39 Q2003.43 1831.39 2005.23 1827.85 Q2007.06 1824.28 2007.06 1817.17 Q2007.06 1810.04 2005.23 1806.5 Q2003.43 1802.94 1999.79 1802.94 M1999.79 1799.23 Q2005.6 1799.23 2008.66 1803.84 Q2011.74 1808.42 2011.74 1817.17 Q2011.74 1825.9 2008.66 1830.51 Q2005.6 1835.09 1999.79 1835.09 Q1993.98 1835.09 1990.9 1830.51 Q1987.85 1825.9 1987.85 1817.17 Q1987.85 1808.42 1990.9 1803.84 Q1993.98 1799.23 1999.79 1799.23 Z" fill="#000000" fill-rule="evenodd" fill-opacity="1" /><path clip-path="url(#clip840)" d="M2019.96 1828.54 L2024.84 1828.54 L2024.84 1834.42 L2019.96 1834.42 L2019.96 1828.54 Z" fill="#000000" fill-rule="evenodd" fill-opacity="1" /><path clip-path="url(#clip840)" d="M2045.02 1802.94 Q2041.41 1802.94 2039.58 1806.5 Q2037.78 1810.04 2037.78 1817.17 Q2037.78 1824.28 2039.58 1827.85 Q2041.41 1831.39 2045.02 1831.39 Q2048.66 1831.39 2050.46 1827.85 Q2052.29 1824.28 2052.29 1817.17 Q2052.29 1810.04 2050.46 1806.5 Q2048.66 1802.94 2045.02 1802.94 M2045.02 1799.23 Q2050.83 1799.23 2053.89 1803.84 Q2056.97 1808.42 2056.97 1817.17 Q2056.97 1825.9 2053.89 1830.51 Q2050.83 1835.09 2045.02 1835.09 Q2039.21 1835.09 2036.14 1830.51 Q2033.08 1825.9 2033.08 1817.17 Q2033.08 1808.42 2036.14 1803.84 Q2039.21 1799.23 2045.02 1799.23 Z" fill="#000000" fill-rule="evenodd" fill-opacity="1" /><path clip-path="url(#clip840)" d="M2835.36 1802.94 Q2831.75 1802.94 2829.92 1806.5 Q2828.12 1810.04 2828.12 1817.17 Q2828.12 1824.28 2829.92 1827.85 Q2831.75 1831.39 2835.36 1831.39 Q2838.99 1831.39 2840.8 1827.85 Q2842.63 1824.28 2842.63 1817.17 Q2842.63 1810.04 2840.8 1806.5 Q2838.99 1802.94 2835.36 1802.94 M2835.36 1799.23 Q2841.17 1799.23 2844.23 1803.84 Q2847.3 1808.42 2847.3 1817.17 Q2847.3 1825.9 2844.23 1830.51 Q2841.17 1835.09 2835.36 1835.09 Q2829.55 1835.09 2826.47 1830.51 Q2823.42 1825.9 2823.42 1817.17 Q2823.42 1808.42 2826.47 1803.84 Q2829.55 1799.23 2835.36 1799.23 Z" fill="#000000" fill-rule="evenodd" fill-opacity="1" /><path clip-path="url(#clip840)" d="M2855.52 1828.54 L2860.41 1828.54 L2860.41 1834.42 L2855.52 1834.42 L2855.52 1828.54 Z" fill="#000000" fill-rule="evenodd" fill-opacity="1" /><path clip-path="url(#clip840)" d="M2870.64 1799.86 L2888.99 1799.86 L2888.99 1803.8 L2874.92 1803.8 L2874.92 1812.27 Q2875.94 1811.92 2876.96 1811.76 Q2877.98 1811.57 2878.99 1811.57 Q2884.78 1811.57 2888.16 1814.74 Q2891.54 1817.92 2891.54 1823.33 Q2891.54 1828.91 2888.07 1832.01 Q2884.6 1835.09 2878.28 1835.09 Q2876.1 1835.09 2873.83 1834.72 Q2871.59 1834.35 2869.18 1833.61 L2869.18 1828.91 Q2871.26 1830.04 2873.49 1830.6 Q2875.71 1831.16 2878.18 1831.16 Q2882.19 1831.16 2884.53 1829.05 Q2886.86 1826.94 2886.86 1823.33 Q2886.86 1819.72 2884.53 1817.61 Q2882.19 1815.51 2878.18 1815.51 Q2876.31 1815.51 2874.43 1815.92 Q2872.58 1816.34 2870.64 1817.22 L2870.64 1799.86 Z" fill="#000000" fill-rule="evenodd" fill-opacity="1" /><path clip-path="url(#clip840)" d="M3659.7 1830.48 L3667.34 1830.48 L3667.34 1804.12 L3659.03 1805.79 L3659.03 1801.53 L3667.29 1799.86 L3671.97 1799.86 L3671.97 1830.48 L3679.61 1830.48 L3679.61 1834.42 L3659.7 1834.42 L3659.7 1830.48 Z" fill="#000000" fill-rule="evenodd" fill-opacity="1" /><path clip-path="url(#clip840)" d="M3689.05 1828.54 L3693.94 1828.54 L3693.94 1834.42 L3689.05 1834.42 L3689.05 1828.54 Z" fill="#000000" fill-rule="evenodd" fill-opacity="1" /><path clip-path="url(#clip840)" d="M3714.12 1802.94 Q3710.51 1802.94 3708.68 1806.5 Q3706.88 1810.04 3706.88 1817.17 Q3706.88 1824.28 3708.68 1827.85 Q3710.51 1831.39 3714.12 1831.39 Q3717.76 1831.39 3719.56 1827.85 Q3721.39 1824.28 3721.39 1817.17 Q3721.39 1810.04 3719.56 1806.5 Q3717.76 1802.94 3714.12 1802.94 M3714.12 1799.23 Q3719.93 1799.23 3722.99 1803.84 Q3726.07 1808.42 3726.07 1817.17 Q3726.07 1825.9 3722.99 1830.51 Q3719.93 1835.09 3714.12 1835.09 Q3708.31 1835.09 3705.23 1830.51 Q3702.18 1825.9 3702.18 1817.17 Q3702.18 1808.42 3705.23 1803.84 Q3708.31 1799.23 3714.12 1799.23 Z" fill="#000000" fill-rule="evenodd" fill-opacity="1" /><path clip-path="url(#clip840)" d="M2039.02 1891.32 L2026.13 1908.66 L2039.69 1926.96 L2032.79 1926.96 L2022.41 1912.96 L2012.03 1926.96 L2005.13 1926.96 L2018.97 1908.31 L2006.3 1891.32 L2013.21 1891.32 L2022.66 1904.02 L2032.12 1891.32 L2039.02 1891.32 Z" fill="#000000" fill-rule="evenodd" fill-opacity="1" /><polyline clip-path="url(#clip842)" style="stroke:#000000; stroke-linecap:butt; stroke-linejoin:round; stroke-width:2; stroke-opacity:0.1; fill:none" points="
  252.062,1713.74 3792.76,1713.74 
  "/>
<polyline clip-path="url(#clip842)" style="stroke:#000000; stroke-linecap:butt; stroke-linejoin:round; stroke-width:2; stroke-opacity:0.1; fill:none" points="
  252.062,1324.08 3792.76,1324.08 
  "/>
<polyline clip-path="url(#clip842)" style="stroke:#000000; stroke-linecap:butt; stroke-linejoin:round; stroke-width:2; stroke-opacity:0.1; fill:none" points="
  252.062,934.426 3792.76,934.426 
  "/>
<polyline clip-path="url(#clip842)" style="stroke:#000000; stroke-linecap:butt; stroke-linejoin:round; stroke-width:2; stroke-opacity:0.1; fill:none" points="
  252.062,544.769 3792.76,544.769 
  "/>
<polyline clip-path="url(#clip842)" style="stroke:#000000; stroke-linecap:butt; stroke-linejoin:round; stroke-width:2; stroke-opacity:0.1; fill:none" points="
  252.062,155.111 3792.76,155.111 
  "/>
<polyline clip-path="url(#clip840)" style="stroke:#000000; stroke-linecap:butt; stroke-linejoin:round; stroke-width:4; stroke-opacity:1; fill:none" points="
  252.062,1760.5 252.062,108.352 
  "/>
<polyline clip-path="url(#clip840)" style="stroke:#000000; stroke-linecap:butt; stroke-linejoin:round; stroke-width:4; stroke-opacity:1; fill:none" points="
  252.062,1713.74 270.96,1713.74 
  "/>
<polyline clip-path="url(#clip840)" style="stroke:#000000; stroke-linecap:butt; stroke-linejoin:round; stroke-width:4; stroke-opacity:1; fill:none" points="
  252.062,1324.08 270.96,1324.08 
  "/>
<polyline clip-path="url(#clip840)" style="stroke:#000000; stroke-linecap:butt; stroke-linejoin:round; stroke-width:4; stroke-opacity:1; fill:none" points="
  252.062,934.426 270.96,934.426 
  "/>
<polyline clip-path="url(#clip840)" style="stroke:#000000; stroke-linecap:butt; stroke-linejoin:round; stroke-width:4; stroke-opacity:1; fill:none" points="
  252.062,544.769 270.96,544.769 
  "/>
<polyline clip-path="url(#clip840)" style="stroke:#000000; stroke-linecap:butt; stroke-linejoin:round; stroke-width:4; stroke-opacity:1; fill:none" points="
  252.062,155.111 270.96,155.111 
  "/>
<path clip-path="url(#clip840)" d="M107.125 1699.54 Q103.513 1699.54 101.685 1703.1 Q99.8792 1706.65 99.8792 1713.78 Q99.8792 1720.88 101.685 1724.45 Q103.513 1727.99 107.125 1727.99 Q110.759 1727.99 112.564 1724.45 Q114.393 1720.88 114.393 1713.78 Q114.393 1706.65 112.564 1703.1 Q110.759 1699.54 107.125 1699.54 M107.125 1695.84 Q112.935 1695.84 115.99 1700.44 Q119.069 1705.03 119.069 1713.78 Q119.069 1722.5 115.99 1727.11 Q112.935 1731.69 107.125 1731.69 Q101.314 1731.69 98.2357 1727.11 Q95.1802 1722.5 95.1802 1713.78 Q95.1802 1705.03 98.2357 1700.44 Q101.314 1695.84 107.125 1695.84 Z" fill="#000000" fill-rule="evenodd" fill-opacity="1" /><path clip-path="url(#clip840)" d="M127.286 1725.14 L132.171 1725.14 L132.171 1731.02 L127.286 1731.02 L127.286 1725.14 Z" fill="#000000" fill-rule="evenodd" fill-opacity="1" /><path clip-path="url(#clip840)" d="M152.356 1699.54 Q148.745 1699.54 146.916 1703.1 Q145.11 1706.65 145.11 1713.78 Q145.11 1720.88 146.916 1724.45 Q148.745 1727.99 152.356 1727.99 Q155.99 1727.99 157.796 1724.45 Q159.624 1720.88 159.624 1713.78 Q159.624 1706.65 157.796 1703.1 Q155.99 1699.54 152.356 1699.54 M152.356 1695.84 Q158.166 1695.84 161.221 1700.44 Q164.3 1705.03 164.3 1713.78 Q164.3 1722.5 161.221 1727.11 Q158.166 1731.69 152.356 1731.69 Q146.546 1731.69 143.467 1727.11 Q140.411 1722.5 140.411 1713.78 Q140.411 1705.03 143.467 1700.44 Q146.546 1695.84 152.356 1695.84 Z" fill="#000000" fill-rule="evenodd" fill-opacity="1" /><path clip-path="url(#clip840)" d="M182.518 1699.54 Q178.907 1699.54 177.078 1703.1 Q175.272 1706.65 175.272 1713.78 Q175.272 1720.88 177.078 1724.45 Q178.907 1727.99 182.518 1727.99 Q186.152 1727.99 187.957 1724.45 Q189.786 1720.88 189.786 1713.78 Q189.786 1706.65 187.957 1703.1 Q186.152 1699.54 182.518 1699.54 M182.518 1695.84 Q188.328 1695.84 191.383 1700.44 Q194.462 1705.03 194.462 1713.78 Q194.462 1722.5 191.383 1727.11 Q188.328 1731.69 182.518 1731.69 Q176.707 1731.69 173.629 1727.11 Q170.573 1722.5 170.573 1713.78 Q170.573 1705.03 173.629 1700.44 Q176.707 1695.84 182.518 1695.84 Z" fill="#000000" fill-rule="evenodd" fill-opacity="1" /><path clip-path="url(#clip840)" d="M108.12 1309.88 Q104.509 1309.88 102.68 1313.45 Q100.875 1316.99 100.875 1324.12 Q100.875 1331.22 102.68 1334.79 Q104.509 1338.33 108.12 1338.33 Q111.754 1338.33 113.56 1334.79 Q115.388 1331.22 115.388 1324.12 Q115.388 1316.99 113.56 1313.45 Q111.754 1309.88 108.12 1309.88 M108.12 1306.18 Q113.93 1306.18 116.986 1310.78 Q120.064 1315.37 120.064 1324.12 Q120.064 1332.84 116.986 1337.45 Q113.93 1342.03 108.12 1342.03 Q102.31 1342.03 99.2311 1337.45 Q96.1755 1332.84 96.1755 1324.12 Q96.1755 1315.37 99.2311 1310.78 Q102.31 1306.18 108.12 1306.18 Z" fill="#000000" fill-rule="evenodd" fill-opacity="1" /><path clip-path="url(#clip840)" d="M128.282 1335.48 L133.166 1335.48 L133.166 1341.36 L128.282 1341.36 L128.282 1335.48 Z" fill="#000000" fill-rule="evenodd" fill-opacity="1" /><path clip-path="url(#clip840)" d="M147.379 1337.43 L163.698 1337.43 L163.698 1341.36 L141.754 1341.36 L141.754 1337.43 Q144.416 1334.67 148.999 1330.04 Q153.606 1325.39 154.786 1324.05 Q157.032 1321.53 157.911 1319.79 Q158.814 1318.03 158.814 1316.34 Q158.814 1313.59 156.87 1311.85 Q154.948 1310.11 151.847 1310.11 Q149.647 1310.11 147.194 1310.88 Q144.763 1311.64 141.985 1313.19 L141.985 1308.47 Q144.81 1307.34 147.263 1306.76 Q149.717 1306.18 151.754 1306.18 Q157.124 1306.18 160.319 1308.86 Q163.513 1311.55 163.513 1316.04 Q163.513 1318.17 162.703 1320.09 Q161.916 1321.99 159.809 1324.58 Q159.231 1325.25 156.129 1328.47 Q153.027 1331.66 147.379 1337.43 Z" fill="#000000" fill-rule="evenodd" fill-opacity="1" /><path clip-path="url(#clip840)" d="M173.559 1306.8 L191.916 1306.8 L191.916 1310.74 L177.842 1310.74 L177.842 1319.21 Q178.86 1318.86 179.879 1318.7 Q180.897 1318.52 181.916 1318.52 Q187.703 1318.52 191.082 1321.69 Q194.462 1324.86 194.462 1330.28 Q194.462 1335.85 190.99 1338.96 Q187.518 1342.03 181.198 1342.03 Q179.022 1342.03 176.754 1341.66 Q174.508 1341.29 172.101 1340.55 L172.101 1335.85 Q174.184 1336.99 176.407 1337.54 Q178.629 1338.1 181.106 1338.1 Q185.11 1338.1 187.448 1335.99 Q189.786 1333.89 189.786 1330.28 Q189.786 1326.66 187.448 1324.56 Q185.11 1322.45 181.106 1322.45 Q179.231 1322.45 177.356 1322.87 Q175.504 1323.28 173.559 1324.16 L173.559 1306.8 Z" fill="#000000" fill-rule="evenodd" fill-opacity="1" /><path clip-path="url(#clip840)" d="M107.125 920.225 Q103.513 920.225 101.685 923.789 Q99.8792 927.331 99.8792 934.461 Q99.8792 941.567 101.685 945.132 Q103.513 948.674 107.125 948.674 Q110.759 948.674 112.564 945.132 Q114.393 941.567 114.393 934.461 Q114.393 927.331 112.564 923.789 Q110.759 920.225 107.125 920.225 M107.125 916.521 Q112.935 916.521 115.99 921.127 Q119.069 925.711 119.069 934.461 Q119.069 943.188 115.99 947.794 Q112.935 952.377 107.125 952.377 Q101.314 952.377 98.2357 947.794 Q95.1802 943.188 95.1802 934.461 Q95.1802 925.711 98.2357 921.127 Q101.314 916.521 107.125 916.521 Z" fill="#000000" fill-rule="evenodd" fill-opacity="1" /><path clip-path="url(#clip840)" d="M127.286 945.826 L132.171 945.826 L132.171 951.706 L127.286 951.706 L127.286 945.826 Z" fill="#000000" fill-rule="evenodd" fill-opacity="1" /><path clip-path="url(#clip840)" d="M142.402 917.146 L160.759 917.146 L160.759 921.081 L146.685 921.081 L146.685 929.553 Q147.703 929.206 148.722 929.044 Q149.74 928.859 150.759 928.859 Q156.546 928.859 159.925 932.03 Q163.305 935.201 163.305 940.618 Q163.305 946.197 159.833 949.299 Q156.36 952.377 150.041 952.377 Q147.865 952.377 145.597 952.007 Q143.351 951.637 140.944 950.896 L140.944 946.197 Q143.027 947.331 145.249 947.887 Q147.472 948.442 149.948 948.442 Q153.953 948.442 156.291 946.336 Q158.629 944.229 158.629 940.618 Q158.629 937.007 156.291 934.901 Q153.953 932.794 149.948 932.794 Q148.073 932.794 146.198 933.211 Q144.347 933.627 142.402 934.507 L142.402 917.146 Z" fill="#000000" fill-rule="evenodd" fill-opacity="1" /><path clip-path="url(#clip840)" d="M182.518 920.225 Q178.907 920.225 177.078 923.789 Q175.272 927.331 175.272 934.461 Q175.272 941.567 177.078 945.132 Q178.907 948.674 182.518 948.674 Q186.152 948.674 187.957 945.132 Q189.786 941.567 189.786 934.461 Q189.786 927.331 187.957 923.789 Q186.152 920.225 182.518 920.225 M182.518 916.521 Q188.328 916.521 191.383 921.127 Q194.462 925.711 194.462 934.461 Q194.462 943.188 191.383 947.794 Q188.328 952.377 182.518 952.377 Q176.707 952.377 173.629 947.794 Q170.573 943.188 170.573 934.461 Q170.573 925.711 173.629 921.127 Q176.707 916.521 182.518 916.521 Z" fill="#000000" fill-rule="evenodd" fill-opacity="1" /><path clip-path="url(#clip840)" d="M108.12 530.567 Q104.509 530.567 102.68 534.132 Q100.875 537.674 100.875 544.803 Q100.875 551.91 102.68 555.474 Q104.509 559.016 108.12 559.016 Q111.754 559.016 113.56 555.474 Q115.388 551.91 115.388 544.803 Q115.388 537.674 113.56 534.132 Q111.754 530.567 108.12 530.567 M108.12 526.864 Q113.93 526.864 116.986 531.47 Q120.064 536.053 120.064 544.803 Q120.064 553.53 116.986 558.136 Q113.93 562.72 108.12 562.72 Q102.31 562.72 99.2311 558.136 Q96.1755 553.53 96.1755 544.803 Q96.1755 536.053 99.2311 531.47 Q102.31 526.864 108.12 526.864 Z" fill="#000000" fill-rule="evenodd" fill-opacity="1" /><path clip-path="url(#clip840)" d="M128.282 556.169 L133.166 556.169 L133.166 562.049 L128.282 562.049 L128.282 556.169 Z" fill="#000000" fill-rule="evenodd" fill-opacity="1" /><path clip-path="url(#clip840)" d="M142.171 527.489 L164.393 527.489 L164.393 529.479 L151.847 562.049 L146.962 562.049 L158.768 531.424 L142.171 531.424 L142.171 527.489 Z" fill="#000000" fill-rule="evenodd" fill-opacity="1" /><path clip-path="url(#clip840)" d="M173.559 527.489 L191.916 527.489 L191.916 531.424 L177.842 531.424 L177.842 539.896 Q178.86 539.549 179.879 539.387 Q180.897 539.201 181.916 539.201 Q187.703 539.201 191.082 542.373 Q194.462 545.544 194.462 550.961 Q194.462 556.539 190.99 559.641 Q187.518 562.72 181.198 562.72 Q179.022 562.72 176.754 562.349 Q174.508 561.979 172.101 561.238 L172.101 556.539 Q174.184 557.674 176.407 558.229 Q178.629 558.785 181.106 558.785 Q185.11 558.785 187.448 556.678 Q189.786 554.572 189.786 550.961 Q189.786 547.35 187.448 545.243 Q185.11 543.137 181.106 543.137 Q179.231 543.137 177.356 543.553 Q175.504 543.97 173.559 544.85 L173.559 527.489 Z" fill="#000000" fill-rule="evenodd" fill-opacity="1" /><path clip-path="url(#clip840)" d="M97.9348 168.456 L105.574 168.456 L105.574 142.09 L97.2635 143.757 L97.2635 139.498 L105.527 137.831 L110.203 137.831 L110.203 168.456 L117.842 168.456 L117.842 172.391 L97.9348 172.391 L97.9348 168.456 Z" fill="#000000" fill-rule="evenodd" fill-opacity="1" /><path clip-path="url(#clip840)" d="M127.286 166.511 L132.171 166.511 L132.171 172.391 L127.286 172.391 L127.286 166.511 Z" fill="#000000" fill-rule="evenodd" fill-opacity="1" /><path clip-path="url(#clip840)" d="M152.356 140.91 Q148.745 140.91 146.916 144.475 Q145.11 148.016 145.11 155.146 Q145.11 162.252 146.916 165.817 Q148.745 169.359 152.356 169.359 Q155.99 169.359 157.796 165.817 Q159.624 162.252 159.624 155.146 Q159.624 148.016 157.796 144.475 Q155.99 140.91 152.356 140.91 M152.356 137.206 Q158.166 137.206 161.221 141.812 Q164.3 146.396 164.3 155.146 Q164.3 163.873 161.221 168.479 Q158.166 173.062 152.356 173.062 Q146.546 173.062 143.467 168.479 Q140.411 163.873 140.411 155.146 Q140.411 146.396 143.467 141.812 Q146.546 137.206 152.356 137.206 Z" fill="#000000" fill-rule="evenodd" fill-opacity="1" /><path clip-path="url(#clip840)" d="M182.518 140.91 Q178.907 140.91 177.078 144.475 Q175.272 148.016 175.272 155.146 Q175.272 162.252 177.078 165.817 Q178.907 169.359 182.518 169.359 Q186.152 169.359 187.957 165.817 Q189.786 162.252 189.786 155.146 Q189.786 148.016 187.957 144.475 Q186.152 140.91 182.518 140.91 M182.518 137.206 Q188.328 137.206 191.383 141.812 Q194.462 146.396 194.462 155.146 Q194.462 163.873 191.383 168.479 Q188.328 173.062 182.518 173.062 Q176.707 173.062 173.629 168.479 Q170.573 163.873 170.573 155.146 Q170.573 146.396 173.629 141.812 Q176.707 137.206 182.518 137.206 Z" fill="#000000" fill-rule="evenodd" fill-opacity="1" /><path clip-path="url(#clip840)" d="M26.6343 932.739 Q33 935.222 34.9416 937.577 Q36.8831 939.932 36.8831 943.879 L36.8831 948.558 L31.9815 948.558 L31.9815 945.12 Q31.9815 942.701 30.8357 941.365 Q29.6899 940.028 25.4248 938.405 L22.7512 937.354 L-12.3238 951.773 L-12.3238 945.566 L15.558 934.426 L-12.3238 923.286 L-12.3238 917.079 L26.6343 932.739 Z" fill="#000000" fill-rule="evenodd" fill-opacity="1" /><path clip-path="url(#clip840)" d="M1768.6 24.0809 L1768.6 46.8064 L1778.89 46.8064 Q1784.61 46.8064 1787.72 43.8493 Q1790.84 40.8921 1790.84 35.4234 Q1790.84 29.9952 1787.72 27.038 Q1784.61 24.0809 1778.89 24.0809 L1768.6 24.0809 M1760.42 17.3564 L1778.89 17.3564 Q1789.06 17.3564 1794.25 21.9744 Q1799.47 26.5519 1799.47 35.4234 Q1799.47 44.3759 1794.25 48.9534 Q1789.06 53.5309 1778.89 53.5309 L1768.6 53.5309 L1768.6 77.8364 L1760.42 77.8364 L1760.42 17.3564 Z" fill="#000000" fill-rule="evenodd" fill-opacity="1" /><path clip-path="url(#clip840)" d="M1810.13 14.8043 L1817.58 14.8043 L1817.58 77.8364 L1810.13 77.8364 L1810.13 14.8043 Z" fill="#000000" fill-rule="evenodd" fill-opacity="1" /><path clip-path="url(#clip840)" d="M1850.76 37.6919 Q1844.76 37.6919 1841.28 42.391 Q1837.79 47.0495 1837.79 55.1918 Q1837.79 63.3341 1841.24 68.0332 Q1844.72 72.6917 1850.76 72.6917 Q1856.71 72.6917 1860.2 67.9927 Q1863.68 63.2936 1863.68 55.1918 Q1863.68 47.1305 1860.2 42.4315 Q1856.71 37.6919 1850.76 37.6919 M1850.76 31.3725 Q1860.48 31.3725 1866.03 37.6919 Q1871.58 44.0113 1871.58 55.1918 Q1871.58 66.3318 1866.03 72.6917 Q1860.48 79.0111 1850.76 79.0111 Q1840.99 79.0111 1835.44 72.6917 Q1829.94 66.3318 1829.94 55.1918 Q1829.94 44.0113 1835.44 37.6919 Q1840.99 31.3725 1850.76 31.3725 Z" fill="#000000" fill-rule="evenodd" fill-opacity="1" /><path clip-path="url(#clip840)" d="M1891.31 19.5844 L1891.31 32.4662 L1906.66 32.4662 L1906.66 38.259 L1891.31 38.259 L1891.31 62.8885 Q1891.31 68.4383 1892.81 70.0181 Q1894.34 71.598 1899 71.598 L1906.66 71.598 L1906.66 77.8364 L1899 77.8364 Q1890.37 77.8364 1887.09 74.6362 Q1883.81 71.3954 1883.81 62.8885 L1883.81 38.259 L1878.34 38.259 L1878.34 32.4662 L1883.81 32.4662 L1883.81 19.5844 L1891.31 19.5844 Z" fill="#000000" fill-rule="evenodd" fill-opacity="1" /><path clip-path="url(#clip840)" d="M1960.41 37.6919 Q1954.42 37.6919 1950.94 42.391 Q1947.45 47.0495 1947.45 55.1918 Q1947.45 63.3341 1950.9 68.0332 Q1954.38 72.6917 1960.41 72.6917 Q1966.37 72.6917 1969.85 67.9927 Q1973.34 63.2936 1973.34 55.1918 Q1973.34 47.1305 1969.85 42.4315 Q1966.37 37.6919 1960.41 37.6919 M1960.41 31.3725 Q1970.14 31.3725 1975.69 37.6919 Q1981.24 44.0113 1981.24 55.1918 Q1981.24 66.3318 1975.69 72.6917 Q1970.14 79.0111 1960.41 79.0111 Q1950.65 79.0111 1945.1 72.6917 Q1939.59 66.3318 1939.59 55.1918 Q1939.59 44.0113 1945.1 37.6919 Q1950.65 31.3725 1960.41 31.3725 Z" fill="#000000" fill-rule="evenodd" fill-opacity="1" /><path clip-path="url(#clip840)" d="M2016.56 14.8043 L2016.56 21.0022 L2009.43 21.0022 Q2005.42 21.0022 2003.84 22.6226 Q2002.3 24.2429 2002.3 28.4559 L2002.3 32.4662 L2014.58 32.4662 L2014.58 38.259 L2002.3 38.259 L2002.3 77.8364 L1994.81 77.8364 L1994.81 38.259 L1987.68 38.259 L1987.68 32.4662 L1994.81 32.4662 L1994.81 29.3065 Q1994.81 21.7314 1998.33 18.2881 Q2001.86 14.8043 2009.51 14.8043 L2016.56 14.8043 Z" fill="#000000" fill-rule="evenodd" fill-opacity="1" /><path clip-path="url(#clip840)" d="M2080.09 43.9382 Q2080.09 44.5121 2079.72 45.8647 L2071.68 77.9184 Q2069.92 85.0505 2064.18 90.0512 Q2058.49 95.0519 2052.01 95.0519 Q2048.12 95.0519 2045.61 92.9614 Q2043.11 90.912 2043.11 87.7558 Q2043.11 84.9685 2044.59 83.6159 Q2046.07 82.3042 2047.83 82.3042 Q2048.4 82.3042 2049.02 82.4682 Q2049.63 82.6321 2050.29 83.3289 Q2050.94 84.0258 2050.94 85.2144 Q2050.94 87.1409 2049.26 88.6575 Q2048.44 89.3544 2047.66 89.5183 Q2046.93 89.6823 2045.66 89.6823 Q2046.15 90.83 2047.05 91.6088 Q2047.95 92.3876 2048.98 92.6745 Q2050 93.0024 2050.66 93.0844 Q2051.35 93.2074 2052.01 93.2074 Q2057.26 93.2074 2061.27 87.9197 Q2062.46 86.3212 2063.32 84.7226 Q2064.22 83.165 2064.88 81.2385 Q2065.54 79.353 2065.82 78.3282 Q2066.15 77.3035 2066.72 74.9671 Q2062.91 78.7791 2058.24 78.7791 Q2056.27 78.7791 2054.51 78.2463 Q2052.79 77.7134 2051.27 76.6067 Q2049.75 75.459 2048.85 73.4505 Q2047.99 71.442 2047.99 68.7777 Q2047.99 65.9495 2049.1 62.0965 Q2050.21 58.2435 2052.87 51.1524 Q2054.3 47.1764 2054.3 45.2499 Q2054.3 44.3071 2054.1 43.7333 Q2053.89 43.1185 2053.48 42.9135 Q2053.07 42.6676 2052.83 42.6266 Q2052.62 42.5856 2052.21 42.5856 Q2049.8 42.5856 2047.54 45.045 Q2045.29 47.5043 2043.73 52.9969 Q2043.4 54.0216 2043.2 54.2675 Q2042.99 54.5135 2042.38 54.5135 Q2041.35 54.4725 2041.35 53.6527 Q2041.35 53.3248 2041.72 52.0541 Q2042.09 50.7425 2042.95 48.816 Q2043.85 46.8485 2045.08 45.0859 Q2046.31 43.2824 2048.24 42.0117 Q2050.21 40.7411 2052.46 40.7411 Q2055.53 40.7411 2057.42 42.7496 Q2059.35 44.717 2059.35 47.6273 Q2059.35 48.816 2059.02 49.8817 Q2058.73 50.9064 2057.67 53.6527 Q2053.36 64.7198 2053.36 70.1304 Q2053.36 71.442 2053.57 72.5488 Q2053.81 73.6145 2054.35 74.6802 Q2054.88 75.7049 2055.94 76.3198 Q2057.05 76.8936 2058.57 76.8936 Q2060.49 76.8936 2062.3 75.9919 Q2064.14 75.0491 2065.29 73.7784 Q2066.48 72.5078 2067.18 71.442 Q2067.91 70.3353 2068.08 69.7615 L2071.85 54.6774 L2073.53 47.9552 Q2074.31 44.3071 2074.68 43.4054 Q2075.17 42.5446 2076.03 42.0937 Q2076.89 41.6428 2077.63 41.6428 Q2078.65 41.6428 2079.35 42.2577 Q2080.09 42.8725 2080.09 43.9382 Z" fill="#000000" fill-rule="evenodd" fill-opacity="1" /><path clip-path="url(#clip840)" d="M2105.35 65.0887 Q2105.43 64.064 2107.03 64.064 L2158.47 64.064 Q2160.89 64.064 2160.93 65.0067 Q2160.93 66.0315 2158.63 65.9905 L2107.6 65.9905 Q2105.35 66.0315 2105.35 65.0887 M2105.35 48.693 Q2105.35 47.6683 2107.11 47.7093 L2158.39 47.7093 Q2160.89 47.7093 2160.93 48.693 Q2160.93 49.6358 2158.8 49.6358 L2107.03 49.6358 Q2105.35 49.6358 2105.35 48.693 Z" fill="#000000" fill-rule="evenodd" fill-opacity="1" /><path clip-path="url(#clip840)" d="M2235.1 46.2746 Q2235.1 48.57 2233.66 49.8817 Q2232.23 51.1524 2230.59 51.1524 Q2229.03 51.1524 2228.21 50.2506 Q2227.39 49.3488 2227.39 48.2011 Q2227.39 46.6435 2228.54 45.2909 Q2229.69 43.9382 2231.41 43.6513 Q2229.73 42.5856 2227.23 42.5856 Q2225.59 42.5856 2224.15 43.4464 Q2222.76 44.3071 2221.9 45.4139 Q2221.08 46.5206 2220.34 48.1191 Q2219.65 49.6767 2219.36 50.6195 Q2219.11 51.5213 2218.91 52.505 L2216.04 63.982 Q2214.64 69.4336 2214.64 71.3601 Q2214.64 73.7374 2215.79 75.336 Q2216.94 76.8936 2219.24 76.8936 Q2220.14 76.8936 2221.16 76.6477 Q2222.19 76.3608 2223.5 75.623 Q2224.85 74.8442 2226.04 73.6965 Q2227.27 72.5078 2228.46 70.4993 Q2229.65 68.4908 2230.43 65.9085 Q2230.67 65.0067 2231.49 65.0067 Q2232.52 65.0067 2232.52 65.8265 Q2232.52 66.5233 2231.94 67.9989 Q2231.41 69.4336 2230.22 71.3191 Q2229.07 73.1636 2227.56 74.8442 Q2226.04 76.4837 2223.78 77.6314 Q2221.53 78.7791 2219.07 78.7791 Q2215.55 78.7791 2213.21 76.8936 Q2210.87 75.0081 2210.01 72.3848 Q2209.81 72.7537 2209.52 73.2456 Q2209.23 73.7374 2208.37 74.8442 Q2207.55 75.9099 2206.61 76.7297 Q2205.67 77.5085 2204.19 78.1233 Q2202.76 78.7791 2201.2 78.7791 Q2199.23 78.7791 2197.47 78.2053 Q2195.75 77.6314 2194.52 76.3198 Q2193.29 75.0081 2193.29 73.2046 Q2193.29 71.1961 2194.64 69.8025 Q2196.04 68.3679 2197.92 68.3679 Q2199.11 68.3679 2200.05 69.0647 Q2201.04 69.7615 2201.04 71.2781 Q2201.04 72.9587 2199.89 74.2293 Q2198.74 75.5 2197.1 75.8279 Q2198.78 76.8936 2201.28 76.8936 Q2203.99 76.8936 2206.12 74.5162 Q2208.25 72.1389 2209.27 68.1629 Q2211.82 58.6124 2212.8 54.3495 Q2213.78 50.0456 2213.78 48.2011 Q2213.78 46.4796 2213.33 45.2909 Q2212.88 44.1022 2212.1 43.5693 Q2211.37 42.9955 2210.67 42.7905 Q2210.01 42.5856 2209.27 42.5856 Q2208.05 42.5856 2206.65 43.0775 Q2205.3 43.5693 2203.66 44.717 Q2202.06 45.8237 2200.54 48.1191 Q2199.03 50.4145 2198 53.5707 Q2197.8 54.5135 2196.9 54.5135 Q2195.91 54.4725 2195.91 53.6527 Q2195.91 52.9559 2196.45 51.5213 Q2197.02 50.0456 2198.17 48.2011 Q2199.36 46.3566 2200.87 44.717 Q2202.43 43.0365 2204.68 41.8888 Q2206.98 40.7411 2209.44 40.7411 Q2210.55 40.7411 2211.61 40.987 Q2212.72 41.192 2214.03 41.8068 Q2215.38 42.4216 2216.57 43.7743 Q2217.76 45.1269 2218.5 47.0944 Q2218.99 46.1517 2219.65 45.2499 Q2220.34 44.3481 2221.41 43.2414 Q2222.51 42.0937 2224.03 41.4379 Q2225.59 40.7411 2227.31 40.7411 Q2228.99 40.7411 2230.63 41.192 Q2232.27 41.6019 2233.66 42.9545 Q2235.1 44.2662 2235.1 46.2746 Z" fill="#000000" fill-rule="evenodd" fill-opacity="1" /><path clip-path="url(#clip840)" d="M2243.65 52.7401 Q2243.65 51.6785 2243.74 51.3629 Q2243.85 51.0473 2244.31 50.5595 L2255.59 37.9922 Q2261.75 31.0486 2261.75 24.9945 Q2261.75 21.0636 2259.69 18.2517 Q2257.65 15.4399 2253.89 15.4399 Q2251.31 15.4399 2249.13 17.018 Q2246.95 18.5961 2245.94 21.4079 Q2246.12 21.3505 2246.72 21.3505 Q2248.18 21.3505 2248.99 22.2687 Q2249.82 23.1869 2249.82 24.4206 Q2249.82 25.9987 2248.78 26.7734 Q2247.78 27.5194 2246.78 27.5194 Q2246.37 27.5194 2245.83 27.4333 Q2245.31 27.3473 2244.48 26.5439 Q2243.65 25.7118 2243.65 24.2485 Q2243.65 20.1455 2246.75 16.8745 Q2249.88 13.6036 2254.64 13.6036 Q2260.03 13.6036 2263.56 16.8171 Q2267.12 20.002 2267.12 24.9945 Q2267.12 26.7447 2266.57 28.3515 Q2266.06 29.9296 2265.34 31.1634 Q2264.65 32.3971 2262.76 34.3769 Q2260.86 36.3567 2259.34 37.7626 Q2257.82 39.1686 2254.41 42.1526 L2248.18 48.2067 L2258.77 48.2067 Q2263.93 48.2067 2264.34 47.7476 Q2264.91 46.9155 2265.63 42.5256 L2267.12 42.5256 L2265.46 52.7401 L2243.65 52.7401 Z" fill="#000000" fill-rule="evenodd" fill-opacity="1" /><path clip-path="url(#clip840)" d="M2275.85 67.5471 L2284.4 67.5471 L2284.4 77.8364 L2275.85 77.8364 L2275.85 67.5471 Z" fill="#000000" fill-rule="evenodd" fill-opacity="1" /><polyline clip-path="url(#clip842)" style="stroke:#009af9; stroke-linecap:butt; stroke-linejoin:round; stroke-width:8; stroke-opacity:1; fill:none" points="
  352.27,155.111 368.972,186.128 385.673,216.833 402.375,247.226 419.076,277.308 435.777,307.077 452.479,336.536 469.18,365.682 485.881,394.517 502.583,423.04 
  519.284,451.251 535.986,479.15 552.687,506.738 569.388,534.014 586.09,560.978 602.791,587.631 619.493,613.972 636.194,640.001 652.895,665.718 669.597,691.124 
  686.298,716.218 702.999,741 719.701,765.471 736.402,789.629 753.104,813.476 769.805,837.012 786.506,860.235 803.208,883.147 819.909,905.747 836.611,928.036 
  853.312,950.012 870.013,971.677 886.715,993.03 903.416,1014.07 920.117,1034.8 936.819,1055.22 953.52,1075.33 970.222,1095.12 986.923,1114.6 1003.62,1133.77 
  1020.33,1152.63 1037.03,1171.18 1053.73,1189.42 1070.43,1207.34 1087.13,1224.95 1103.83,1242.26 1120.53,1259.24 1137.24,1275.92 1153.94,1292.29 1170.64,1308.34 
  1187.34,1324.08 1204.04,1339.51 1220.74,1354.63 1237.44,1369.44 1254.15,1383.93 1270.85,1398.12 1287.55,1411.99 1304.25,1425.55 1320.95,1438.8 1337.65,1451.74 
  1354.35,1464.36 1371.05,1476.67 1387.76,1488.67 1404.46,1500.36 1421.16,1511.74 1437.86,1522.81 1454.56,1533.56 1471.26,1544.01 1487.96,1554.14 1504.67,1563.96 
  1521.37,1573.46 1538.07,1582.66 1554.77,1591.54 1571.47,1600.12 1588.17,1608.38 1604.87,1616.33 1621.58,1623.96 1638.28,1631.29 1654.98,1638.3 1671.68,1645.01 
  1688.38,1651.4 1705.08,1657.47 1721.78,1663.24 1738.49,1668.7 1755.19,1673.84 1771.89,1678.67 1788.59,1683.19 1805.29,1687.4 1821.99,1691.3 1838.69,1694.88 
  1855.4,1698.15 1872.1,1701.12 1888.8,1703.77 1905.5,1706.1 1922.2,1708.13 1938.9,1709.84 1955.6,1711.25 1972.3,1712.34 1989.01,1713.12 2005.71,1713.59 
  2022.41,1713.74 2039.11,1713.59 2055.81,1713.12 2072.51,1712.34 2089.21,1711.25 2105.92,1709.84 2122.62,1708.13 2139.32,1706.1 2156.02,1703.77 2172.72,1701.12 
  2189.42,1698.15 2206.12,1694.88 2222.83,1691.3 2239.53,1687.4 2256.23,1683.19 2272.93,1678.67 2289.63,1673.84 2306.33,1668.7 2323.03,1663.24 2339.74,1657.47 
  2356.44,1651.4 2373.14,1645.01 2389.84,1638.3 2406.54,1631.29 2423.24,1623.96 2439.94,1616.33 2456.65,1608.38 2473.35,1600.12 2490.05,1591.54 2506.75,1582.66 
  2523.45,1573.46 2540.15,1563.96 2556.85,1554.14 2573.55,1544.01 2590.26,1533.56 2606.96,1522.81 2623.66,1511.74 2640.36,1500.36 2657.06,1488.67 2673.76,1476.67 
  2690.46,1464.36 2707.17,1451.74 2723.87,1438.8 2740.57,1425.55 2757.27,1411.99 2773.97,1398.12 2790.67,1383.93 2807.37,1369.44 2824.08,1354.63 2840.78,1339.51 
  2857.48,1324.08 2874.18,1308.34 2890.88,1292.29 2907.58,1275.92 2924.28,1259.24 2940.99,1242.26 2957.69,1224.95 2974.39,1207.34 2991.09,1189.42 3007.79,1171.18 
  3024.49,1152.63 3041.19,1133.77 3057.89,1114.6 3074.6,1095.12 3091.3,1075.33 3108,1055.22 3124.7,1034.8 3141.4,1014.07 3158.1,993.03 3174.8,971.677 
  3191.51,950.012 3208.21,928.036 3224.91,905.747 3241.61,883.147 3258.31,860.235 3275.01,837.012 3291.71,813.476 3308.42,789.629 3325.12,765.471 3341.82,741 
  3358.52,716.218 3375.22,691.124 3391.92,665.718 3408.62,640.001 3425.33,613.972 3442.03,587.631 3458.73,560.978 3475.43,534.014 3492.13,506.738 3508.83,479.15 
  3525.53,451.251 3542.24,423.04 3558.94,394.517 3575.64,365.682 3592.34,336.536 3609.04,307.077 3625.74,277.308 3642.44,247.226 3659.14,216.833 3675.85,186.128 
  3692.55,155.111 
  "/>
</svg>
